<?xml version="1.0" encoding="iso-8859-1"?>
<!-- Generator: Adobe Illustrator 19.0.0, SVG Export Plug-In . SVG Version: 6.00 Build 0)  -->
<svg version="1.1" id="Layer_1" xmlns="http://www.w3.org/2000/svg" xmlns:xlink="http://www.w3.org/1999/xlink" x="0px" y="0px"
	 viewBox="0 0 482.485 482.485" style="enable-background:new 0 0 482.485 482.485;" xml:space="preserve">
<path style="fill:#3A556A;" d="M469.835,0.301H12.047C5.421,0.301,0,5.722,0,12.348v372.856c0,6.626,5.421,12.047,12.047,12.047
	h458.391c6.626,0,12.047-5.421,12.047-12.047V12.348C481.882,5.722,476.461,0.301,469.835,0.301z"/>
<rect x="26.504" y="26.805" style="fill:#EBF0F3;" width="429.478" height="296.96"/>
<rect x="26.504" y="26.805" style="fill:#64798A;" width="429.478" height="27.106"/>
<g>
	<circle style="fill:#2F4859;" cx="240.941" cy="358.701" r="18.673"/>
	<rect x="148.179" y="397.252" style="fill:#2F4859;" width="184.922" height="56.019"/>
</g>
<polygon style="fill:#64798A;" points="333.704,453.271 148.179,453.271 333.704,397.252 "/>
<path style="fill:#3A556A;" d="M371.049,452.668H110.833c-4.819,0-9.035,4.216-9.035,9.035v20.48h278.889v-20.48
	C380.687,456.885,376.471,452.668,371.049,452.668z"/>
<circle style="fill:#FCD462;" cx="387.915" cy="40.056" r="7.831"/>
<circle style="fill:#44C4A1;" cx="411.407" cy="40.056" r="7.831"/>
<circle style="fill:#E56353;" cx="435.501" cy="40.056" r="7.831"/>
<g>
	<rect x="49.995" y="76.198" style="fill:#64798A;" width="40.96" height="8.433"/>
	<rect x="49.995" y="111.134" style="fill:#64798A;" width="40.96" height="8.433"/>
	<rect x="330.089" y="111.134" style="fill:#64798A;" width="40.96" height="8.433"/>
	<rect x="49.995" y="146.071" style="fill:#64798A;" width="40.96" height="8.433"/>
</g>
<rect x="277.082" y="146.071" style="fill:#E56353;" width="40.96" height="8.433"/>
<rect x="371.049" y="146.071" style="fill:#27A2DB;" width="40.96" height="8.433"/>
<g>
	<rect x="49.995" y="181.609" style="fill:#64798A;" width="40.96" height="8.433"/>
	<rect x="49.995" y="216.546" style="fill:#64798A;" width="40.96" height="8.433"/>
	<rect x="49.995" y="251.482" style="fill:#64798A;" width="40.96" height="8.433"/>
	<rect x="49.995" y="287.021" style="fill:#64798A;" width="40.96" height="8.433"/>
</g>
<rect x="277.082" y="287.021" style="fill:#E56353;" width="40.96" height="8.433"/>
<rect x="377.675" y="287.021" style="fill:#FCD462;" width="40.96" height="8.433"/>
<rect x="122.278" y="76.198" style="fill:#E56353;" width="40.96" height="8.433"/>
<rect x="206.005" y="76.198" style="fill:#64798A;" width="40.96" height="8.433"/>
<g>
	<rect x="289.129" y="76.198" style="fill:#44C4A1;" width="40.96" height="8.433"/>
	<rect x="162.635" y="111.134" style="fill:#44C4A1;" width="106.616" height="8.433"/>
</g>
<rect x="122.278" y="146.071" style="fill:#64798A;" width="118.664" height="8.433"/>
<rect x="160.828" y="181.609" style="fill:#44C4A1;" width="40.96" height="8.433"/>
<rect x="240.339" y="181.609" style="fill:#DC8744;" width="122.278" height="8.433"/>
<rect x="122.278" y="216.546" style="fill:#E56353;" width="40.96" height="8.433"/>
<rect x="206.005" y="216.546" style="fill:#64798A;" width="40.96" height="8.433"/>
<rect x="289.129" y="216.546" style="fill:#FCD462;" width="122.278" height="8.433"/>
<g>
	<rect x="122.278" y="251.482" style="fill:#64798A;" width="40.96" height="8.433"/>
	<rect x="390.927" y="251.482" style="fill:#64798A;" width="40.96" height="8.433"/>
</g>
<rect x="206.005" y="251.482" style="fill:#27A2DB;" width="135.529" height="8.433"/>
<rect x="122.278" y="287.021" style="fill:#DC8744;" width="118.664" height="8.433"/>
<g>
</g>
<g>
</g>
<g>
</g>
<g>
</g>
<g>
</g>
<g>
</g>
<g>
</g>
<g>
</g>
<g>
</g>
<g>
</g>
<g>
</g>
<g>
</g>
<g>
</g>
<g>
</g>
<g>
</g>
</svg>
