<svg height="512" viewBox="0 0 512 512" width="512" xmlns="http://www.w3.org/2000/svg" xmlns:xlink="http://www.w3.org/1999/xlink"><linearGradient id="a" gradientUnits="userSpaceOnUse" x1="-105.673" x2="429.001" y1="329.673" y2="-205.001" data-name="New Gradient Swatch 1"><stop offset="0" stop-color="#003f8a"/><stop offset=".518" stop-color="#00d7df"/><stop offset="1" stop-color="#006df0"/></linearGradient><linearGradient id="b" x1="75.422" x2="610.097" xlink:href="#a" y1="510.769" y2="-23.905"/><linearGradient id="c" x1="150.327" x2="685.001" xlink:href="#a" y1="585.673" y2="50.999"/><linearGradient id="e" x1="6.327" x2="541.001" xlink:href="#a" y1="441.673" y2="-93.001"/><linearGradient id="f" x1="54.327" x2="589.001" xlink:href="#a" y1="489.673" y2="-45.001"/><linearGradient id="g" x1="74.327" x2="609.001" xlink:href="#a" y1="509.673" y2="-25.001"/><linearGradient id="h" x1="-29.673" x2="505.001" xlink:href="#a" y1="405.673" y2="-129.001"/><linearGradient id="i" x1="-9.673" x2="525.001" xlink:href="#a" y1="425.673" y2="-109.001"/><linearGradient id="j" x1="10.327" x2="545.001" xlink:href="#a" y1="445.673" y2="-89.001"/><linearGradient id="k" x1="24.327" x2="559.001" xlink:href="#a" y1="459.673" y2="-75.001"/><linearGradient id="l" x1="46.327" x2="581.001" xlink:href="#a" y1="481.673" y2="-53.001"/><linearGradient id="m" x1="58.327" x2="593.001" xlink:href="#a" y1="493.673" y2="-41.001"/><linearGradient id="n" x1="70.327" x2="605.001" xlink:href="#a" y1="505.673" y2="-29.001"/><linearGradient id="o" x1="54.343" x2="589.017" xlink:href="#a" y1="489.657" y2="-45.018"/><linearGradient id="p" x1="88.327" x2="623.001" xlink:href="#a" y1="523.673" y2="-11.001"/><linearGradient id="q" x1="92.327" x2="627.001" xlink:href="#a" y1="527.673" y2="-7.001"/><linearGradient id="r" x1="-45.673" x2="489.001" xlink:href="#a" y1="389.673" y2="-145.001"/><linearGradient id="s" x1="-185.673" x2="349.001" xlink:href="#a" y1="249.673" y2="-285.001"/><linearGradient id="t" x1="-151.673" x2="383.001" xlink:href="#a" y1="283.673" y2="-251.001"/><linearGradient id="v" x1="262.327" x2="797.001" xlink:href="#a" y1="697.673" y2="162.999"/><linearGradient id="w" x1="228.327" x2="763.001" xlink:href="#a" y1="663.673" y2="128.999"/><g><path d="m88 64a71.946 71.946 0 0 0 -51.53 122.21 7.729 7.729 0 0 0 1.32 1.32 71.978 71.978 0 1 0 50.21-123.53zm8 16.58a56.11 56.11 0 0 1 47.42 47.42h-47.42zm-64 55.42a56.086 56.086 0 0 1 48-55.42v52.11l-36.83 36.83a55.708 55.708 0 0 1 -11.17-33.52zm56 56a55.708 55.708 0 0 1 -33.52-11.17l36.83-36.83h52.11a56.086 56.086 0 0 1 -55.42 48z" fill="url(#a)"/><path d="m376 264a95.954 95.954 0 0 0 -80.13 148.81l-31.87 31.88v-148.69a8 8 0 0 0 -8-8h-20.69l40-40h76.69a8 8 0 0 0 0-16h-80a8.008 8.008 0 0 0 -5.66 2.34l-53.65 53.66h-196.69a8 8 0 0 0 -8 8v200a8 8 0 0 0 8 8h240a8 8 0 0 0 8-8v-28.69l41.85-41.85a95.978 95.978 0 1 0 70.15-161.46zm-128 199.99v24.01h-224v-184h224zm128-23.99a80 80 0 1 1 80-80 80.093 80.093 0 0 1 -80 80z" fill="url(#b)"/><path d="m376 288a72 72 0 1 0 72 72 72.083 72.083 0 0 0 -72-72zm0 128a56 56 0 1 1 56-56 56.062 56.062 0 0 1 -56 56z" fill="url(#c)"/><path d="m400 360v24a8 8 0 0 1 -8 8h-8a8 8 0 0 1 -16 0h-8a8 8 0 0 1 0-16h24v-8h-24a8 8 0 0 1 -8-8v-24a8 8 0 0 1 8-8h8a8 8 0 0 1 16 0h8a8 8 0 0 1 0 16h-24v8h24a8 8 0 0 1 8 8z" fill="url(#c)"/><path d="m320 200h32a8 8 0 0 0 8-8v-160a8 8 0 0 0 -8-8h-32a8 8 0 0 0 -8 8v160a8 8 0 0 0 8 8zm8-160h16v144h-16z" fill="url(#e)"/><path d="m376 200h32a8 8 0 0 0 8-8v-80a8 8 0 0 0 -8-8h-32a8 8 0 0 0 -8 8v80a8 8 0 0 0 8 8zm8-80h16v64h-16z" fill="url(#f)"/><path d="m432 200h32a8 8 0 0 0 8-8v-112a8 8 0 0 0 -8-8h-32a8 8 0 0 0 -8 8v112a8 8 0 0 0 8 8zm8-112h16v96h-16z" fill="url(#g)"/><path d="m208 200h32a8 8 0 0 0 8-8v-80a8 8 0 0 0 -8-8h-32a8 8 0 0 0 -8 8v80a8 8 0 0 0 8 8zm8-80h16v64h-16z" fill="url(#h)"/><path d="m264 200h32a8 8 0 0 0 8-8v-112a8 8 0 0 0 -8-8h-32a8 8 0 0 0 -8 8v112a8 8 0 0 0 8 8zm8-112h16v96h-16z" fill="url(#i)"/><path d="m184 224h312a8 8 0 0 0 0-16h-304v-192a8 8 0 0 0 -16 0v200a8 8 0 0 0 8 8z" fill="url(#j)"/><path d="m232 320h-192a8 8 0 0 0 -8 8v40a8 8 0 0 0 8 8h192a8 8 0 0 0 8-8v-40a8 8 0 0 0 -8-8zm-8 40h-176v-24h176z" fill="url(#k)"/><path d="m232 384h-192a8 8 0 0 0 0 16h192a8 8 0 0 0 0-16z" fill="url(#l)"/><path d="m232 408h-192a8 8 0 0 0 0 16h192a8 8 0 0 0 0-16z" fill="url(#m)"/><path d="m232 432h-192a8 8 0 0 0 0 16h192a8 8 0 0 0 0-16z" fill="url(#n)"/><path d="m120 456h-80a8 8 0 0 0 0 16h80a8 8 0 0 0 0-16z" fill="url(#o)"/><path d="m152 456h-8a8 8 0 0 0 0 16h8a8 8 0 0 0 0-16z" fill="url(#p)"/><path d="m376 232a8 8 0 0 0 0 16h8a8 8 0 0 0 0-16z" fill="url(#q)"/><path d="m120 216h-80a8 8 0 0 0 0 16h76.687l37.656 37.657a8 8 0 1 0 11.314-11.314l-40-40a8 8 0 0 0 -5.657-2.343z" fill="url(#r)"/><path d="m16 48h40a8 8 0 0 0 8-8v-24a8 8 0 0 0 -8-8h-40a8 8 0 0 0 -8 8v24a8 8 0 0 0 8 8zm8-24h24v8h-24z" fill="url(#s)"/><path d="m80 24h72a8 8 0 0 0 0-16h-72a8 8 0 0 0 0 16z" fill="url(#t)"/><path d="m80 48h24a8 8 0 0 0 0-16h-24a8 8 0 0 0 0 16z" fill="url(#t)"/><path d="m496 464h-40a8 8 0 0 0 -8 8v24a8 8 0 0 0 8 8h40a8 8 0 0 0 8-8v-24a8 8 0 0 0 -8-8zm-8 24h-24v-8h24z" fill="url(#v)"/><g fill="url(#w)"><path d="m432 488h-72a8 8 0 0 0 0 16h72a8 8 0 0 0 0-16z"/><path d="m432 464h-24a8 8 0 0 0 0 16h24a8 8 0 0 0 0-16z"/></g></g></svg>