<?xml version="1.0" encoding="iso-8859-1"?>
<!-- Generator: Adobe Illustrator 19.0.0, SVG Export Plug-In . SVG Version: 6.00 Build 0)  -->
<svg version="1.1" id="Capa_1" xmlns="http://www.w3.org/2000/svg" xmlns:xlink="http://www.w3.org/1999/xlink" x="0px" y="0px"
	 viewBox="0 0 512.108 512.108" style="enable-background:new 0 0 512.108 512.108;" xml:space="preserve">
<path style="fill:#415A6B;" d="M84.23,449.229l-10.667,2.133c0,0-1.067-4.267,0-10.667c2.133-5.333,14.933-10.667,23.467-13.867
	c8.533-3.2,41.6-8.533,62.933-5.333c20.267,3.2,22.4,5.333,22.4,5.333v9.6L84.23,449.229"/>
<path style="fill:#344A5E;" d="M99.163,464.162c0,0-22.4-2.133-24.533-9.6c-3.2-7.467,2.133-13.867,4.267-16
	c6.4-4.267,35.2-14.933,60.8-12.8c25.6,2.133,64,5.333,64,5.333l-17.067,44.8L99.163,464.162z"/>
<path style="fill:#CED6E0;" d="M182.363,426.829l6.4,26.667c2.133,7.467,7.467,12.8,13.867,16l0,0l-75.733-7.467
	c17.067-12.8,13.867-43.733,13.867-43.733L182.363,426.829z"/>
<path style="fill:#4ABAA5;" d="M289.03,343.629l-87.467-37.333c0,0-35.2-14.933-53.333-3.2s-16,34.133-16,45.867
	c0,12.8-1.067,44.8-5.333,62.933s0,40.533,0,40.533s10.667-20.267,28.8-22.4c25.6-2.133,33.067,9.6,33.067,9.6
	s14.933-44.8,11.733-59.733c0,0,9.6,16,37.333,24.533s38.4,9.6,38.4,9.6L289.03,343.629z"/>
<path style="fill:#CED6E0;" d="M306.097,154.829c0,0-3.2,7.467-11.733,13.867c-7.467,6.4-10.667,13.867-13.867,19.2
	c-3.2,5.333-7.467,11.733-8.533,16c-1.067,4.267-21.333,22.4-26.667,26.667s-9.6,9.6-14.933,13.867
	c-5.333,4.267-21.333,9.6-21.333,9.6s-2.133,33.067,2.133,38.4c4.267,5.333,20.267,9.6,27.733,7.467
	c7.467-2.133,8.533-2.133,12.8-4.267c4.267-2.133,5.333-3.2,10.667-6.4c5.333-3.2,33.067-27.733,33.067-27.733s3.2-51.2,4.267-64
	C299.697,184.696,306.097,154.829,306.097,154.829z"/>
<path style="fill:#FFD15C;" d="M365.83,89.762l1.067,10.667c0,0,3.2,13.867,6.4,19.2c3.2,5.333,3.2,5.333,3.2,5.333l-59.733,40.533
	c0,0-6.4-17.067-7.467-22.4c0,0-9.6,2.133-13.867-5.333c-4.267-7.467-6.4-11.733-10.667-17.067
	c-4.267-5.333-8.533-17.067-8.533-26.667s1.067-14.933-1.067-19.2c-2.133-4.267,0-9.6,0-9.6s-3.2-10.667-2.133-19.2
	s5.333-21.333,9.6-25.6c3.2-5.333,50.133-10.667,60.8-3.2C354.097,22.562,365.83,72.696,365.83,89.762z"/>
<path style="fill:#415A6B;" d="M275.163,64.162c0,1.067-3.2-11.733,0-21.333c3.2-9.6,5.333-12.8,5.333-12.8s5.333-6.4,14.933-7.467
	c9.6-1.067,23.467,2.133,32,0s17.067,4.267,17.067,12.8s-2.133,13.867,0,18.133s4.267,23.467,4.267,23.467l2.133,1.067
	c0,0,0-8.533,4.267-14.933c4.267-6.4,7.467-2.133,7.467,2.133s1.067,27.733,3.2,34.133c0,0,0-28.8,1.067-43.733
	s-3.2-37.333-13.867-44.8c-10.667-7.467-23.467-11.733-40.533-10.667c-20.267,1.067-39.467,16-39.467,22.4s2.133,7.467,2.133,7.467
	S267.697,48.162,275.163,64.162z"/>
<ellipse transform="matrix(0.1967 -0.9805 0.9805 0.1967 218.54 409.8116)" style="fill:#FFD15C;" cx="359.365" cy="71.538" rx="13.867" ry="6.4"/>
<path style="fill:#F7B64C;" d="M308.23,143.096c1.067,5.333,3.2,24.533,3.2,24.533l29.867-20.267c9.6-22.4,12.8-42.667,12.8-42.667
	C344.497,126.029,308.23,143.096,308.23,143.096z"/>
<path style="fill:#ADB3BA;" d="M371.163,131.362l7.467,2.133c0,0,16,13.867,27.733,21.333
	c11.733,7.467,39.467,59.733,46.933,103.467s16,132.267,3.2,180.267c0,0-20.267-35.2-44.8-43.733s-68.267-13.867-68.267-13.867
	l-48-30.933c0,0,4.267-34.133,0-57.6s-8.533-58.667-6.4-73.6c2.133-14.933,6.4-44.8,10.667-52.267
	c4.267-8.533,9.6-18.133,9.6-18.133l6.4,19.2L371.163,131.362z"/>
<path style="fill:#F3705A;" d="M312.497,177.229l3.2,5.333c0,0,2.133,8.533,0,17.067c-2.133,8.533-7.467,22.4-7.467,30.933
	s0,121.6,0,121.6h-17.067c0,0,2.133-37.333,1.067-61.867c-1.067-24.533,6.4-58.667,6.4-69.333c1.067-9.6-1.067-32,0-36.267
	L312.497,177.229z"/>
<path style="fill:#F3F3F3;" d="M370.097,113.229c0,0-2.133,6.4-7.467,8.533c-5.333,3.2-43.733,28.8-52.267,42.667
	c0,0,8.533,19.2,17.067,28.8c0,0,3.2-12.8,12.8-22.4c10.667-10.667,37.333-32,38.4-38.4
	C380.763,127.096,370.097,113.229,370.097,113.229z"/>
<path style="fill:#F05540;" d="M309.297,160.162l2.133,5.333c3.2,1.067,7.467,4.267,7.467,4.267l3.2,9.6
	c0,0-10.667,10.667-22.4,5.333c0,0,2.133-9.6,3.2-12.8C302.897,168.696,309.297,160.162,309.297,160.162z"/>
<g>
	<path style="fill:#CED6E0;" d="M309.297,146.296l4.267,13.867l-11.733,10.667c0,0,3.2-9.6,5.333-14.933
		C309.297,150.562,309.297,146.296,309.297,146.296z"/>
	<path style="fill:#CED6E0;" d="M370.097,113.229c0,0-2.133,6.4-7.467,8.533c-5.333,3.2-43.733,28.8-52.267,42.667
		c0,0,8.533,19.2,17.067,28.8c0,0,3.2-12.8,12.8-22.4c10.667-10.667,37.333-32,38.4-38.4
		C380.763,127.096,370.097,113.229,370.097,113.229z"/>
</g>
<path style="fill:#415A6B;" d="M177.03,310.562v8.533l0,0c0,0,5.333,0,6.4,0c4.267,0,86.4,2.133,112,3.2
	c4.267,0,7.467-3.2,8.533-7.467v-1.067L177.03,310.562z"/>
<polygon style="fill:#344A5E;" points="303.963,313.762 214.363,296.696 163.163,296.696 180.23,312.696 "/>
<path style="fill:#CED6E0;" d="M331.697,252.962c0,0,1.067-35.2,26.667-49.067c25.6-13.867,44.8,4.267,52.267,14.933
	c1.067,1.067,2.133,3.2,3.2,5.333c10.667,22.4,9.6,48-2.133,70.4c-5.333,9.6-11.733,20.267-17.067,28.8
	c-12.8,20.267-42.667,70.4-56.533,74.667c-13.867,4.267-55.467-6.4-73.6-17.067c-18.133-10.667-52.267-25.6-52.267-25.6
	s0-13.867,4.267-23.467s5.333-9.6,5.333-9.6s37.333,11.733,41.6,11.733s19.2,2.133,26.667,4.267
	c8.533,2.133,20.267,1.067,20.267,1.067s1.067-3.2,4.267-7.467c3.2-4.267,2.133-6.4,2.133-9.6c0-3.2,1.067-8.533,1.067-12.8
	c1.067-4.267,5.333-32,9.6-39.467C330.63,262.562,331.697,252.962,331.697,252.962z"/>
<path style="fill:#FFD15C;" d="M242.097,294.562c-2.133,1.067-9.6,3.2-14.933-2.133c0,0-6.4,0-8.533-3.2c0,0-2.133,1.067-5.333,0
	s-7.467-2.133-11.733-4.267c-1.067-1.067-2.133-1.067-2.133-1.067s0-3.2,1.067-5.333l0,0c-1.067,1.067-2.133,3.2-3.2,3.2
	l-1.067,1.067h-1.067l-22.4-8.533c0,0,8.533-6.4,12.8-9.6c4.267-3.2,7.467-6.4,10.667-6.4c3.2,0,10.667-3.2,10.667-3.2
	s13.867-1.067,24.533,6.4c0,0,2.133,3.2,2.133,7.467c0,4.267,1.067,8.533,1.067,10.667s1.067,4.267,1.067,4.267s4.267,0,6.4,2.133
	C245.297,289.229,244.23,293.496,242.097,294.562z"/>
<path style="fill:#F7B64C;" d="M226.097,292.429c5.333,5.333,12.8,3.2,14.933,2.133l0,0c-1.067,0-1.067,0-2.133,0
	c-6.4,1.067-8.533-1.067-11.733-2.133c-2.133-1.067-5.333-7.467-4.267-9.6c1.067-2.133,5.333-7.467,5.333-7.467s0,0-2.133,2.133
	c-2.133,2.133-3.2,4.267-5.333,8.533c-2.133,3.2-6.4-2.133-6.4-3.2c0-2.133,3.2-4.267,6.4-7.467c0,0-2.133,1.067-5.333,4.267
	c-3.2,3.2-8.533,9.6-8.533,9.6c1.067,0,3.2,1.067,4.267,1.067c3.2,1.067,5.333,0,5.333,0
	C219.697,291.362,226.097,292.429,226.097,292.429z"/>
<g>
	<path style="fill:#FFD15C;" d="M201.563,283.896L201.563,283.896h-4.267c0,0-2.133,4.267-3.2,5.333s-3.2,3.2-3.2,4.267
		s-2.133,4.267-1.067,6.4c1.067,2.133,5.333,2.133,8.533,0c2.133-2.133,5.333-7.467,6.4-8.533c1.067-1.067,2.133-3.2,2.133-3.2
		l1.067-7.467L201.563,283.896z"/>
	<path style="fill:#FFD15C;" d="M194.097,279.629l1.067,2.133c0,0-3.2,4.267-5.333,6.4s-3.2,4.267-4.267,6.4
		c-1.067,1.067-4.267,7.467-8.533,6.4c-4.267,0-4.267-2.133-4.267-3.2c0,0-2.133,0-2.133-2.133s0-2.133,0-2.133l0,0
		c0,0-3.2-1.067-3.2-6.4c0-2.133,0-3.2,1.067-5.333c1.067-2.133,0-7.467,4.267-8.533s4.267-1.067,4.267-1.067L194.097,279.629z"/>
</g>
<g>
	<path style="fill:#FFFFFF;" d="M172.763,292.429c-1.067,1.067-1.067,2.133-2.133,3.2c0,2.133,2.133,2.133,2.133,2.133l0,0
		c1.067-2.133,2.133-5.333,2.133-5.333S174.897,290.296,172.763,292.429z"/>
	<path style="fill:#FFFFFF;" d="M173.83,297.762c0,0,2.133-1.067,5.333,0c2.133,0,2.133-3.2,2.133-4.267s-4.267-1.067-5.333,0
		C174.897,293.496,173.83,295.629,173.83,297.762z"/>
</g>
<g>
	<path style="fill:#F7B64C;" d="M172.763,297.762v-1.067c0,0,0-1.067,1.067-2.133c0-1.067,1.067-1.067,1.067-2.133
		c1.067-1.067,2.133-3.2,3.2-5.333c0-1.067,1.067-2.133,1.067-3.2c0-1.067,1.067-2.133,1.067-3.2c1.067-2.133,2.133-4.267,3.2-6.4
		c1.067-2.133,3.2-3.2,4.267-4.267c3.2-2.133,5.333-3.2,5.333-3.2s-2.133,2.133-4.267,4.267c-2.133,2.133-5.333,6.4-6.4,10.667
		c0,1.067-1.067,2.133-1.067,3.2c0,1.067-1.067,2.133-1.067,3.2c-1.067,2.133-2.133,3.2-3.2,5.333c0,1.067-1.067,1.067-1.067,2.133
		c0,1.067-1.067,1.067-1.067,1.067C173.83,297.762,172.763,297.762,172.763,297.762z"/>
	<path style="fill:#F7B64C;" d="M170.63,293.496c0,0,0-1.067,0-3.2c0-1.067,0-2.133,1.067-4.267c0-1.067,1.067-3.2,1.067-4.267
		c1.067-3.2,2.133-5.333,3.2-7.467c1.067-2.133,2.133-3.2,2.133-3.2s-1.067,1.067-2.133,3.2c-1.067,2.133-2.133,4.267-3.2,7.467
		c0,3.2-1.067,6.4-1.067,8.533C170.63,292.429,170.63,293.496,170.63,293.496z"/>
</g>
<path style="fill:#FFFFFF;" d="M193.03,294.562c0,0,1.067-1.067,3.2,0c2.133,1.067,1.067,2.133,1.067,3.2s-3.2,2.133-4.267,1.067
	C190.897,298.829,190.897,297.762,193.03,294.562z"/>
<g>
	<polygon style="fill:#CED6E0;" points="62.897,186.829 49.03,188.962 100.23,303.096 178.097,319.096 123.697,192.162 	"/>
	<path style="fill:#CED6E0;" d="M140.763,300.962c0,0,5.333,9.6,5.333,10.667l-30.933-6.4c0-1.067,0-2.133,0-2.133l-2.133-7.467
		c0,0,3.2-3.2,5.333,0c0,0-1.067-4.267-1.067-5.333s-2.133-8.533-2.133-8.533s2.133-2.133,4.267-1.067c0,0,7.467-6.4,9.6,6.4
		c0,0,5.333-3.2,8.533,2.133C140.763,296.696,140.763,300.962,140.763,300.962z"/>
	<path style="fill:#CED6E0;" d="M178.097,319.096h-1.067H178.097z"/>
</g>
<path style="fill:#F3F3F3;" d="M115.163,191.096h10.667l56.533,125.867c0,0-3.2,3.2-4.267,2.133l-54.4-124.8l-5.333-3.2
	L115.163,191.096z"/>
<path style="fill:#E8EAE9;" d="M49.03,188.962c0,0,1.067-4.267,3.2-4.267c2.133,0,72.533,6.4,72.533,6.4s-3.2,1.067-3.2,3.2
	L49.03,188.962z"/>
<path style="fill:#FFD15C;" d="M223.963,325.496l-11.733,28.8c0,0-12.8-6.4-17.067-8.533c-4.267-3.2-11.733-4.267-17.067-5.333
	c-5.333-1.067-22.4-1.067-26.667-4.267c-1.067-1.067-2.133-1.067-2.133-1.067s-3.2,1.067-5.333-1.067
	c-2.133-2.133-9.6-11.733-9.6-11.733s-3.2-1.067-5.333-2.133c0,0-2.133,1.067-4.267-1.067c-3.2-2.133-9.6-8.533-10.667-10.667
	c0-1.067,0-2.133,0-2.133c0-1.067,0-2.133,0-2.133l-2.133-7.467c0,0,3.2-3.2,5.333,0c0,0-1.067-4.267-1.067-5.333
	s-2.133-8.533-2.133-8.533s2.133-2.133,4.267-1.067c0,0,7.467-6.4,9.6,6.4c0,0,5.333-3.2,8.533,2.133s3.2,10.667,3.2,10.667
	s5.333,9.6,5.333,10.667c0,0,5.333,3.2,7.467,4.267c2.133,1.067,7.467,3.2,7.467,3.2s2.133-2.133,3.2-3.2l0,0l8.533,2.133
	l4.267,1.067c1.067,0,1.067,0,1.067,0l0,0c0,0,0,0,1.067,0l0,0c2.133,0,17.067,0,35.2,1.067L223.963,325.496z"/>
<g>
	<path style="fill:#F7B64C;" d="M129.03,288.162c0,0,1.067,3.2,2.133,7.467s2.133,9.6,3.2,14.933l1.067,4.267
		c0,1.067,1.067,2.133,2.133,3.2c2.133,2.133,3.2,4.267,4.267,5.333c2.133,3.2,4.267,5.333,4.267,5.333s-2.133-2.133-5.333-5.333
		c-1.067-1.067-3.2-3.2-5.333-5.333c-1.067-1.067-2.133-2.133-2.133-4.267l-1.067-4.267c-1.067-5.333-2.133-11.733-2.133-16
		C129.03,291.362,129.03,288.162,129.03,288.162z"/>
	<path style="fill:#F7B64C;" d="M134.363,322.296c-2.133-2.133-4.267-4.267-6.4-6.4c-1.067-1.067-2.133-2.133-3.2-3.2
		c-1.067-2.133-1.067-3.2-1.067-4.267c-1.067-3.2-1.067-6.4-2.133-8.533l-1.067-4.267c0-1.067,0-2.133,0-2.133v-2.133l0,0
		c0-2.133-1.067-5.333-1.067-7.467c1.067,2.133,2.133,5.333,2.133,7.467l0,0l0,0v2.133c0,1.067,0,2.133,0,2.133l1.067,4.267
		c1.067,3.2,1.067,6.4,2.133,8.533c0,1.067,0,3.2,1.067,4.267s1.067,2.133,2.133,3.2
		C130.097,316.962,132.23,320.162,134.363,322.296z"/>
	<path style="fill:#F7B64C;" d="M129.03,319.096c0,0-2.133,0-4.267-2.133c-1.067-1.067-2.133-1.067-4.267-3.2l-1.067-1.067v-1.067
		l-1.067-2.133c0-3.2,0-6.4,0-8.533s0-4.267,0-4.267s1.067,2.133,1.067,4.267c0,1.067,0,1.067,1.067,2.133
		c0,1.067,1.067,1.067,1.067,2.133c0,1.067,1.067,3.2,1.067,5.333l1.067,2.133c0,1.067,0,1.067,1.067,2.133
		c1.067,1.067,2.133,2.133,3.2,3.2C127.963,318.029,129.03,319.096,129.03,319.096z"/>
	<path style="fill:#F7B64C;" d="M152.497,315.896c-2.133-1.067-6.4-3.2-6.4-4.267c1.067,4.267,10.667,13.867,13.867,14.933
		c4.267,1.067,3.2,1.067,5.333,1.067s3.2,1.067,3.2,1.067l-1.067-1.067c1.067,0,6.4,1.067,6.4,1.067c-2.133,0-5.333-2.133-6.4-2.133
		s-5.333,0-6.4-2.133c-1.067-2.133,1.067-6.4,1.067-6.4S154.63,316.962,152.497,315.896z"/>
</g>
<path style="fill:#66C6B9;" d="M174.897,450.296l38.4,40.533c0,0,25.6-16,28.8-22.4c0,0,24.533-6.4,26.667-22.4
	c0,0,28.8,40.533,84.267,41.6c55.467,1.067,80-4.267,88.533-21.333s16-27.733,16-27.733s-13.867-29.867-39.467-44.8
	s-59.733-10.667-59.733-10.667s-14.933,2.133-35.2-3.2c-20.267-5.333-33.067-14.933-53.333-20.267
	c-20.267-5.333-37.333-3.2-49.067,8.533c-11.733,11.733-16,26.667-16,34.133C202.63,409.762,190.897,438.562,174.897,450.296z"/>
<path style="fill:#4ABAA5;" d="M273.03,416.162c0,3.2-2.133,6.4-3.2,9.6c-1.067,2.133-2.133,3.2-3.2,5.333
	c-1.067,1.067-2.133,2.133-3.2,3.2c-2.133,1.067-3.2,2.133-3.2,2.133s0,0,0,1.067c1.067,1.067,3.2,2.133,4.267,3.2
	c2.133,1.067,3.2,3.2,4.267,4.267c1.067,1.067,1.067,1.067,1.067,2.133l-1.067-1.067c-1.067-1.067-2.133-2.133-4.267-3.2
	c-2.133-1.067-4.267-2.133-7.467-3.2s-6.4-2.133-8.533-4.267c-5.333-3.2-10.667-8.533-12.8-12.8
	c-1.067-2.133-2.133-4.267-2.133-5.333s0-2.133,0-2.133s0,1.067,0,2.133c0,1.067,1.067,3.2,2.133,5.333
	c1.067,2.133,3.2,4.267,5.333,6.4c2.133,2.133,5.333,4.267,7.467,5.333c3.2,2.133,5.333,3.2,8.533,4.267
	c1.067,0,1.067,1.067,2.133,1.067c0-1.067-1.067-1.067-2.133-2.133c-2.133-2.133-4.267-6.4-5.333-10.667
	c-1.067-4.267-2.133-8.533-2.133-11.733c0-2.133,0-3.2,0-4.267c0-1.067,0-1.067,0-1.067v1.067c0,1.067,0,2.133,0,4.267
	c0,1.067,1.067,3.2,1.067,5.333c1.067,2.133,1.067,4.267,2.133,6.4c1.067,4.267,3.2,7.467,5.333,10.667
	c1.067,1.067,1.067,2.133,1.067,3.2c0,0,1.067-1.067,3.2-3.2c2.133-2.133,3.2-5.333,5.333-8.533c1.067-3.2,3.2-6.4,4.267-9.6
	c1.067-2.133,1.067-4.267,1.067-4.267S273.03,412.962,273.03,416.162z"/>
<path style="fill:#415A6B;" d="M194.097,462.029l-9.6-2.133c0,0-11.733,4.267-22.4,1.067c-9.6-2.133-10.667-8.533-30.933-11.733
	c-20.267-3.2-58.667,11.733-59.733,14.933c-1.067,3.2-5.333,18.133,4.267,26.667s52.267,25.6,75.733,20.267
	c23.467-5.333,34.133-7.467,37.333-8.533c3.2-1.067,7.467-1.067,7.467-1.067L194.097,462.029z"/>
<path style="fill:#344A5E;" d="M184.497,459.896c0,0,11.733,27.733,5.333,42.667c0,0,27.733,1.067,35.2-9.6
	c7.467-10.667,5.333-27.733-4.267-33.067C211.163,454.562,184.497,459.896,184.497,459.896z"/>
<g>
</g>
<g>
</g>
<g>
</g>
<g>
</g>
<g>
</g>
<g>
</g>
<g>
</g>
<g>
</g>
<g>
</g>
<g>
</g>
<g>
</g>
<g>
</g>
<g>
</g>
<g>
</g>
<g>
</g>
</svg>
