<?xml version="1.0" encoding="UTF-8"?>
<svg xmlns="http://www.w3.org/2000/svg" xmlns:xlink="http://www.w3.org/1999/xlink" width="74.6pt" height="32pt" viewBox="0 0 74.6 32" version="1.1">
<defs>
<clipPath id="clip1">
  <path d="M 26 12 L 74.601563 12 L 74.601563 19 L 26 19 Z M 26 12 "/>
</clipPath>
</defs>
<g id="surface1">
<path style=" stroke:none;fill-rule:evenodd;fill:rgb(69.334412%,78.90625%,0%);fill-opacity:1;" d="M 4.6875 1.515625 C 7.8125 5.207031 10.75 7.746094 13.484375 9.140625 L 11.425781 12.757813 C 8.683594 11.335938 4.898438 10.308594 0.0703125 9.679688 C 0.167969 9.246094 0.371094 8.882813 0.679688 8.589844 C 3.234375 9.214844 6.152344 9.558594 9.425781 9.617188 C 9.835938 9.585938 9.910156 9.386719 9.644531 9.03125 C 8.636719 7.234375 6.78125 5.054688 4.082031 2.492188 C 4.199219 1.984375 4.398438 1.660156 4.6875 1.515625 Z M 4.6875 1.515625 "/>
<path style=" stroke:none;fill-rule:evenodd;fill:rgb(85.15625%,19.993591%,15.696716%);fill-opacity:1;" d="M 19.59375 1.792969 C 16.449219 5.46875 13.5 7.996094 10.757813 9.378906 L 12.804688 13.007813 C 15.550781 11.59375 19.339844 10.589844 24.171875 9.980469 C 24.074219 9.546875 23.871094 9.179688 23.570313 8.878906 C 21.007813 9.496094 18.09375 9.835938 14.8125 9.878906 C 14.40625 9.839844 14.332031 9.644531 14.601563 9.289063 C 15.621094 7.496094 17.480469 5.320313 20.195313 2.769531 C 20.082031 2.265625 19.878906 1.941406 19.59375 1.792969 Z M 19.59375 1.792969 "/>
<path style=" stroke:none;fill-rule:evenodd;fill:rgb(85.15625%,19.993591%,15.696716%);fill-opacity:1;" d="M 20.65625 6.261719 C 21.136719 7.078125 20.84375 8.113281 20.007813 8.582031 C 19.171875 9.042969 18.109375 8.761719 17.625 7.945313 C 17.15625 7.128906 17.445313 6.09375 18.277344 5.628906 C 19.113281 5.164063 20.175781 5.445313 20.65625 6.261719 Z M 20.65625 6.261719 "/>
<path style=" stroke:none;fill-rule:evenodd;fill:rgb(69.334412%,78.90625%,0%);fill-opacity:1;" d="M 4.210938 6.433594 C 4.707031 5.628906 5.777344 5.363281 6.601563 5.84375 C 7.433594 6.328125 7.703125 7.367188 7.210938 8.171875 C 6.71875 8.976563 5.644531 9.242188 4.820313 8.761719 C 3.996094 8.28125 3.722656 7.242188 4.210938 6.433594 Z M 4.210938 6.433594 "/>
<path style=" stroke:none;fill-rule:evenodd;fill:rgb(0%,40.380859%,60.351563%);fill-opacity:1;" d="M 16.945313 0.144531 C 14.667969 5.777344 13.882813 10.257813 14.601563 13.582031 C 16.242188 18.890625 17.222656 21.628906 17.546875 21.800781 C 17.042969 22.046875 16.523438 22.007813 15.996094 21.675781 C 14.898438 17.742188 13.675781 14.996094 12.328125 13.441406 C 12.019531 13.394531 11.738281 13.648438 11.480469 14.210938 C 10.363281 15.886719 9.261719 18.46875 8.171875 21.960938 C 7.421875 22.136719 6.964844 22.058594 6.804688 21.71875 C 8.496094 17.996094 9.589844 14.785156 10.09375 12.082031 C 10.203125 8.925781 9.300781 4.953125 7.382813 0.148438 C 7.816406 0.0273438 8.242188 0.0234375 8.660156 0.140625 C 9.332031 2.628906 10.429688 5.28125 11.957031 8.105469 C 12.1875 8.433594 12.398438 8.402344 12.589844 8.007813 C 13.71875 6.277344 14.78125 3.640625 15.78125 0.0976563 C 16.289063 -0.0429688 16.679688 -0.03125 16.945313 0.144531 Z M 16.945313 0.144531 "/>
<path style=" stroke:none;fill-rule:evenodd;fill:rgb(0%,40.380859%,60.351563%);fill-opacity:1;" d="M 12.203125 1.714844 C 13.164063 1.71875 13.945313 2.480469 13.941406 3.417969 C 13.941406 4.355469 13.152344 5.117188 12.195313 5.113281 C 11.234375 5.113281 10.453125 4.351563 10.453125 3.410156 C 10.457031 2.472656 11.242188 1.714844 12.203125 1.714844 Z M 12.203125 1.714844 "/>
<path style=" stroke:none;fill-rule:evenodd;fill:rgb(23.535156%,23.143005%,23.143005%);fill-opacity:1;" d="M 46.761719 11.96875 L 46.769531 7.746094 L 47.492188 7.753906 L 47.484375 11.96875 Z M 45.144531 11.226563 L 45.144531 10.632813 L 44.976563 10.628906 C 44.742188 10.628906 44.570313 10.671875 44.449219 10.761719 C 44.335938 10.855469 44.28125 10.96875 44.28125 11.105469 C 44.28125 11.21875 44.3125 11.308594 44.382813 11.382813 C 44.457031 11.457031 44.535156 11.492188 44.625 11.492188 C 44.714844 11.492188 44.796875 11.46875 44.886719 11.421875 C 44.972656 11.378906 45.0625 11.3125 45.144531 11.226563 Z M 45.144531 11.648438 C 45.042969 11.757813 44.953125 11.839844 44.878906 11.886719 C 44.800781 11.933594 44.722656 11.96875 44.636719 11.996094 C 44.550781 12.019531 44.46875 12.027344 44.375 12.027344 C 44.132813 12.027344 43.945313 11.945313 43.800781 11.78125 C 43.65625 11.621094 43.585938 11.417969 43.585938 11.179688 C 43.585938 10.894531 43.699219 10.652344 43.914063 10.464844 C 44.128906 10.265625 44.480469 10.171875 44.957031 10.175781 L 45.144531 10.175781 L 45.148438 9.90625 C 45.148438 9.726563 45.105469 9.609375 45.015625 9.546875 C 44.925781 9.480469 44.804688 9.445313 44.664063 9.445313 C 44.394531 9.445313 44.113281 9.535156 43.828125 9.710938 L 43.828125 9.164063 C 44.148438 9.03125 44.472656 8.964844 44.796875 8.964844 C 44.996094 8.964844 45.167969 8.992188 45.328125 9.054688 C 45.484375 9.105469 45.605469 9.203125 45.703125 9.332031 C 45.789063 9.453125 45.839844 9.632813 45.839844 9.882813 L 45.835938 11.175781 C 45.835938 11.339844 45.855469 11.433594 45.898438 11.46875 C 45.945313 11.503906 45.988281 11.523438 46.035156 11.523438 C 46.058594 11.523438 46.089844 11.523438 46.132813 11.511719 L 46.148438 11.960938 C 45.992188 12.011719 45.859375 12.03125 45.738281 12.03125 C 45.609375 12.03125 45.492188 12.007813 45.394531 11.960938 C 45.300781 11.910156 45.226563 11.804688 45.171875 11.648438 Z M 40.5625 11.960938 L 40.574219 9.023438 L 41.292969 9.023438 L 41.292969 9.578125 C 41.417969 9.351563 41.566406 9.1875 41.71875 9.09375 C 41.882813 9.003906 42.039063 8.964844 42.203125 8.964844 C 42.414063 8.964844 42.589844 9.03125 42.746094 9.179688 C 42.894531 9.335938 42.96875 9.5625 42.96875 9.886719 L 42.964844 11.964844 L 42.25 11.960938 L 42.25 10.085938 C 42.25 9.917969 42.238281 9.8125 42.210938 9.753906 C 42.183594 9.703125 42.148438 9.652344 42.101563 9.621094 C 42.058594 9.59375 42.003906 9.582031 41.949219 9.582031 C 41.847656 9.582031 41.742188 9.613281 41.640625 9.683594 C 41.53125 9.757813 41.414063 9.898438 41.289063 10.113281 L 41.285156 11.960938 Z M 38.523438 11.523438 C 38.730469 11.523438 38.882813 11.425781 38.988281 11.226563 C 39.089844 11.03125 39.144531 10.785156 39.144531 10.488281 C 39.144531 10.183594 39.097656 9.9375 38.992188 9.742188 C 38.886719 9.546875 38.734375 9.441406 38.527344 9.441406 C 38.324219 9.441406 38.171875 9.542969 38.070313 9.738281 C 37.964844 9.933594 37.914063 10.179688 37.914063 10.480469 C 37.914063 10.78125 37.964844 11.027344 38.066406 11.226563 C 38.171875 11.425781 38.320313 11.523438 38.523438 11.523438 Z M 38.523438 12.011719 C 38.230469 12.011719 37.984375 11.960938 37.78125 11.832031 C 37.574219 11.710938 37.417969 11.519531 37.308594 11.28125 C 37.203125 11.039063 37.148438 10.777344 37.148438 10.480469 C 37.148438 10.183594 37.203125 9.921875 37.308594 9.683594 C 37.417969 9.441406 37.574219 9.257813 37.78125 9.132813 C 37.992188 9.011719 38.238281 8.957031 38.527344 8.957031 C 38.824219 8.957031 39.074219 9.011719 39.277344 9.140625 C 39.484375 9.265625 39.640625 9.445313 39.746094 9.6875 C 39.855469 9.925781 39.910156 10.191406 39.910156 10.488281 C 39.910156 10.78125 39.851563 11.042969 39.746094 11.285156 C 39.632813 11.523438 39.472656 11.714844 39.269531 11.835938 C 39.0625 11.960938 38.8125 12.011719 38.523438 12.011719 Z M 35.773438 8.515625 L 35.773438 7.855469 L 36.496094 7.859375 L 36.496094 8.515625 Z M 35.765625 11.945313 L 35.773438 9.011719 L 36.496094 9.011719 L 36.484375 11.945313 Z M 35.125 11.925781 C 34.949219 11.980469 34.816406 12.007813 34.71875 12.007813 C 34.484375 12.007813 34.296875 11.972656 34.171875 11.898438 C 34.039063 11.828125 33.949219 11.726563 33.882813 11.601563 C 33.820313 11.472656 33.785156 11.285156 33.785156 11.042969 L 33.789063 9.496094 L 33.492188 9.496094 L 33.492188 9.003906 L 33.789063 9.003906 L 33.789063 8.503906 L 34.515625 8.421875 L 34.511719 9.007813 L 35.078125 9.011719 L 35.078125 9.503906 L 34.511719 9.503906 L 34.507813 10.9375 C 34.507813 11.152344 34.539063 11.292969 34.605469 11.371094 C 34.675781 11.441406 34.777344 11.480469 34.902344 11.480469 C 34.96875 11.480469 35.039063 11.472656 35.128906 11.441406 Z M 32.132813 11.195313 L 32.132813 10.597656 L 31.964844 10.597656 C 31.730469 10.597656 31.554688 10.640625 31.433594 10.734375 C 31.320313 10.832031 31.265625 10.941406 31.265625 11.082031 C 31.265625 11.1875 31.300781 11.28125 31.367188 11.351563 C 31.4375 11.425781 31.519531 11.464844 31.617188 11.464844 C 31.699219 11.464844 31.785156 11.441406 31.871094 11.394531 C 31.957031 11.351563 32.046875 11.28125 32.132813 11.195313 Z M 32.132813 11.617188 C 32.027344 11.726563 31.9375 11.808594 31.863281 11.859375 C 31.785156 11.90625 31.707031 11.941406 31.621094 11.96875 C 31.539063 11.988281 31.453125 12.003906 31.359375 12.003906 C 31.117188 12.003906 30.929688 11.917969 30.785156 11.753906 C 30.644531 11.589844 30.570313 11.390625 30.570313 11.152344 C 30.574219 10.867188 30.683594 10.628906 30.894531 10.433594 C 31.113281 10.238281 31.460938 10.140625 31.945313 10.144531 L 32.132813 10.144531 L 32.136719 9.878906 C 32.136719 9.695313 32.089844 9.582031 32 9.515625 C 31.910156 9.457031 31.792969 9.417969 31.652344 9.417969 C 31.378906 9.414063 31.101563 9.503906 30.808594 9.675781 L 30.8125 9.136719 C 31.136719 9.003906 31.460938 8.933594 31.785156 8.9375 C 31.984375 8.9375 32.15625 8.964844 32.316406 9.023438 C 32.46875 9.085938 32.59375 9.175781 32.6875 9.300781 C 32.777344 9.421875 32.828125 9.609375 32.828125 9.851563 L 32.824219 11.148438 C 32.824219 11.308594 32.84375 11.40625 32.886719 11.4375 C 32.933594 11.476563 32.976563 11.492188 33.019531 11.492188 C 33.046875 11.492188 33.074219 11.492188 33.113281 11.484375 L 33.136719 11.925781 C 32.980469 11.980469 32.847656 12.003906 32.726563 12.003906 C 32.597656 12.003906 32.476563 11.980469 32.382813 11.929688 C 32.289063 11.878906 32.214844 11.777344 32.160156 11.617188 L 32.128906 11.617188 Z M 26.992188 11.925781 L 27 7.96875 L 27.664063 7.96875 L 29.320313 10.675781 L 29.328125 7.976563 L 29.929688 7.976563 L 29.921875 11.929688 L 29.246094 11.929688 L 27.601563 9.222656 L 27.59375 11.925781 Z M 26.992188 11.925781 "/>
<g clip-path="url(#clip1)" clip-rule="nonzero">
<path style=" stroke:none;fill-rule:evenodd;fill:rgb(0%,40.380859%,60.351563%);fill-opacity:1;" d="M 74.617188 17.0625 C 74.4375 17.117188 74.300781 17.148438 74.195313 17.144531 C 73.949219 17.144531 73.757813 17.113281 73.621094 17.03125 C 73.488281 16.960938 73.390625 16.851563 73.324219 16.722656 C 73.253906 16.589844 73.222656 16.394531 73.222656 16.140625 L 73.222656 14.53125 L 72.910156 14.53125 L 72.914063 14.015625 L 73.226563 14.015625 L 73.226563 13.503906 L 73.980469 13.410156 L 73.980469 14.015625 L 74.570313 14.019531 L 74.566406 14.535156 L 73.976563 14.535156 L 73.976563 16.035156 C 73.972656 16.253906 74.007813 16.40625 74.074219 16.484375 C 74.144531 16.558594 74.253906 16.597656 74.386719 16.597656 C 74.453125 16.597656 74.527344 16.589844 74.621094 16.558594 Z M 69.773438 17.066406 L 69.777344 14.011719 L 70.53125 14.011719 L 70.53125 14.589844 C 70.664063 14.355469 70.816406 14.183594 70.976563 14.089844 C 71.144531 13.992188 71.308594 13.945313 71.480469 13.945313 C 71.703125 13.945313 71.886719 14.015625 72.050781 14.175781 C 72.203125 14.339844 72.277344 14.582031 72.277344 14.910156 L 72.269531 17.078125 L 71.523438 17.070313 L 71.53125 15.117188 C 71.53125 14.945313 71.511719 14.839844 71.488281 14.773438 C 71.460938 14.714844 71.421875 14.671875 71.375 14.632813 C 71.328125 14.605469 71.269531 14.589844 71.214844 14.589844 C 71.109375 14.589844 71 14.628906 70.890625 14.707031 C 70.777344 14.777344 70.65625 14.925781 70.53125 15.148438 L 70.527344 17.070313 Z M 67.261719 15.234375 L 68.246094 15.234375 C 68.246094 14.960938 68.207031 14.753906 68.125 14.632813 C 68.042969 14.507813 67.933594 14.453125 67.796875 14.453125 C 67.652344 14.453125 67.535156 14.519531 67.441406 14.648438 C 67.34375 14.78125 67.289063 14.972656 67.261719 15.234375 Z M 68.988281 16.964844 C 68.625 17.082031 68.292969 17.132813 67.972656 17.132813 C 67.671875 17.132813 67.410156 17.066406 67.183594 16.953125 C 66.957031 16.820313 66.785156 16.628906 66.664063 16.363281 C 66.546875 16.101563 66.480469 15.816406 66.480469 15.507813 C 66.484375 15.222656 66.535156 14.964844 66.640625 14.71875 C 66.746094 14.476563 66.894531 14.285156 67.09375 14.140625 C 67.289063 14.003906 67.535156 13.9375 67.824219 13.9375 C 68.179688 13.9375 68.460938 14.058594 68.667969 14.308594 C 68.882813 14.5625 68.992188 15.023438 68.988281 15.707031 L 67.273438 15.703125 C 67.289063 15.902344 67.332031 16.0625 67.398438 16.183594 C 67.46875 16.304688 67.5625 16.394531 67.671875 16.46875 C 67.789063 16.539063 67.945313 16.578125 68.140625 16.578125 C 68.390625 16.578125 68.667969 16.511719 68.988281 16.378906 Z M 61.691406 17.050781 L 61.703125 13.992188 L 62.421875 13.992188 L 62.421875 14.570313 C 62.511719 14.382813 62.640625 14.230469 62.796875 14.109375 C 62.949219 13.984375 63.136719 13.925781 63.359375 13.929688 C 63.496094 13.929688 63.609375 13.953125 63.710938 13.996094 C 63.8125 14.042969 63.902344 14.109375 63.976563 14.210938 C 64.046875 14.304688 64.105469 14.433594 64.121094 14.578125 C 64.265625 14.347656 64.402344 14.179688 64.546875 14.082031 C 64.691406 13.976563 64.867188 13.933594 65.070313 13.933594 C 65.296875 13.933594 65.480469 14.003906 65.621094 14.152344 C 65.757813 14.292969 65.832031 14.53125 65.832031 14.855469 L 65.824219 17.058594 L 65.105469 17.058594 L 65.109375 15.128906 C 65.109375 14.898438 65.078125 14.746094 65.011719 14.675781 C 64.945313 14.617188 64.871094 14.585938 64.785156 14.585938 C 64.675781 14.585938 64.558594 14.628906 64.449219 14.714844 C 64.339844 14.804688 64.230469 14.933594 64.121094 15.117188 L 64.121094 17.054688 L 63.402344 17.054688 L 63.40625 15.121094 C 63.40625 14.890625 63.371094 14.753906 63.308594 14.671875 C 63.242188 14.605469 63.164063 14.578125 63.074219 14.570313 C 62.957031 14.570313 62.851563 14.617188 62.742188 14.710938 C 62.632813 14.792969 62.527344 14.929688 62.421875 15.113281 L 62.414063 17.050781 Z M 59.007813 16.242188 C 59.105469 16.371094 59.207031 16.464844 59.292969 16.507813 C 59.386719 16.554688 59.476563 16.578125 59.570313 16.578125 C 59.773438 16.582031 59.917969 16.46875 60.019531 16.253906 C 60.117188 16.035156 60.164063 15.785156 60.164063 15.503906 C 60.167969 15.214844 60.117188 14.980469 60.027344 14.816406 C 59.933594 14.652344 59.800781 14.5625 59.632813 14.5625 C 59.523438 14.5625 59.417969 14.605469 59.308594 14.691406 C 59.199219 14.773438 59.101563 14.886719 59.007813 15.03125 Z M 58.25 18.144531 L 58.261719 13.984375 L 59.007813 13.984375 L 59.007813 14.5625 C 59.105469 14.347656 59.226563 14.1875 59.378906 14.082031 C 59.53125 13.972656 59.699219 13.917969 59.910156 13.917969 C 60.246094 13.917969 60.507813 14.058594 60.691406 14.339844 C 60.875 14.617188 60.96875 14.980469 60.964844 15.433594 C 60.964844 15.914063 60.859375 16.3125 60.652344 16.636719 C 60.445313 16.960938 60.15625 17.117188 59.78125 17.113281 C 59.691406 17.113281 59.59375 17.101563 59.511719 17.082031 C 59.429688 17.054688 59.34375 17.019531 59.265625 16.972656 C 59.195313 16.925781 59.105469 16.84375 59.003906 16.734375 L 58.996094 18.144531 L 58.246094 18.144531 Z M 56.121094 16.589844 C 56.335938 16.589844 56.5 16.488281 56.605469 16.285156 C 56.71875 16.082031 56.765625 15.820313 56.769531 15.511719 C 56.769531 15.195313 56.71875 14.9375 56.609375 14.734375 C 56.5 14.527344 56.339844 14.425781 56.125 14.425781 C 55.917969 14.425781 55.757813 14.527344 55.648438 14.730469 C 55.542969 14.9375 55.488281 15.195313 55.488281 15.503906 C 55.488281 15.820313 55.539063 16.082031 55.644531 16.285156 C 55.757813 16.488281 55.910156 16.589844 56.121094 16.589844 Z M 56.121094 17.109375 C 55.820313 17.105469 55.558594 17.039063 55.347656 16.914063 C 55.132813 16.785156 54.972656 16.589844 54.855469 16.339844 C 54.742188 16.089844 54.683594 15.8125 54.6875 15.503906 C 54.6875 15.203125 54.746094 14.925781 54.855469 14.671875 C 54.972656 14.421875 55.132813 14.234375 55.347656 14.101563 C 55.566406 13.972656 55.828125 13.914063 56.128906 13.914063 C 56.4375 13.914063 56.695313 13.976563 56.90625 14.109375 C 57.125 14.238281 57.289063 14.429688 57.398438 14.679688 C 57.515625 14.929688 57.570313 15.207031 57.566406 15.511719 C 57.566406 15.820313 57.511719 16.09375 57.398438 16.34375 C 57.277344 16.59375 57.113281 16.789063 56.902344 16.914063 C 56.683594 17.042969 56.421875 17.109375 56.121094 17.109375 Z M 53.246094 17.03125 L 53.257813 12.632813 L 54.007813 12.632813 L 54 17.035156 Z M 50.738281 15.195313 L 51.722656 15.203125 C 51.722656 14.917969 51.683594 14.71875 51.601563 14.597656 C 51.519531 14.472656 51.410156 14.414063 51.273438 14.414063 C 51.128906 14.414063 51.011719 14.484375 50.917969 14.613281 C 50.820313 14.746094 50.765625 14.9375 50.738281 15.195313 Z M 52.464844 16.925781 C 52.105469 17.039063 51.765625 17.097656 51.453125 17.097656 C 51.148438 17.09375 50.882813 17.03125 50.660156 16.914063 C 50.429688 16.785156 50.261719 16.589844 50.136719 16.332031 C 50.015625 16.070313 49.957031 15.78125 49.957031 15.472656 C 49.957031 15.1875 50.011719 14.925781 50.117188 14.679688 C 50.21875 14.441406 50.371094 14.246094 50.570313 14.101563 C 50.769531 13.96875 51.011719 13.902344 51.300781 13.902344 C 51.65625 13.902344 51.941406 14.019531 52.144531 14.273438 C 52.359375 14.523438 52.46875 14.988281 52.464844 15.667969 L 50.746094 15.664063 C 50.769531 15.867188 50.804688 16.027344 50.878906 16.148438 C 50.941406 16.265625 51.035156 16.359375 51.148438 16.433594 C 51.265625 16.503906 51.421875 16.539063 51.617188 16.539063 C 51.867188 16.539063 52.144531 16.476563 52.464844 16.34375 L 52.460938 16.925781 Z M 47.816406 17.019531 L 46.761719 13.964844 L 47.546875 13.964844 L 48.324219 16.171875 L 49.101563 13.964844 L 49.644531 13.964844 L 48.5625 17.019531 Z M 44.621094 15.183594 L 45.601563 15.183594 C 45.605469 14.902344 45.5625 14.707031 45.484375 14.585938 C 45.398438 14.460938 45.289063 14.402344 45.15625 14.402344 C 45.011719 14.402344 44.886719 14.46875 44.796875 14.601563 C 44.699219 14.730469 44.644531 14.925781 44.621094 15.183594 Z M 46.339844 16.914063 C 45.984375 17.027344 45.648438 17.089844 45.328125 17.085938 C 45.027344 17.085938 44.761719 17.019531 44.542969 16.898438 C 44.3125 16.769531 44.140625 16.582031 44.019531 16.316406 C 43.898438 16.050781 43.835938 15.765625 43.835938 15.460938 C 43.839844 15.175781 43.890625 14.910156 43.996094 14.667969 C 44.101563 14.425781 44.25 14.234375 44.449219 14.089844 C 44.644531 13.960938 44.890625 13.886719 45.179688 13.886719 C 45.535156 13.886719 45.820313 14.007813 46.027344 14.261719 C 46.238281 14.511719 46.347656 14.972656 46.34375 15.652344 L 44.625 15.648438 C 44.644531 15.855469 44.6875 16.015625 44.757813 16.132813 C 44.820313 16.253906 44.917969 16.347656 45.03125 16.421875 C 45.144531 16.488281 45.296875 16.523438 45.496094 16.523438 C 45.746094 16.523438 46.027344 16.464844 46.34375 16.335938 Z M 40.753906 16.417969 L 41.335938 16.417969 C 41.640625 16.417969 41.871094 16.367188 42.035156 16.265625 C 42.195313 16.164063 42.320313 15.988281 42.414063 15.742188 C 42.511719 15.488281 42.554688 15.214844 42.554688 14.910156 C 42.558594 14.617188 42.515625 14.359375 42.425781 14.136719 C 42.332031 13.910156 42.207031 13.742188 42.046875 13.621094 C 41.886719 13.515625 41.613281 13.445313 41.230469 13.445313 L 40.761719 13.445313 Z M 39.964844 17.003906 L 39.976563 12.878906 L 41.589844 12.882813 C 42.027344 12.882813 42.363281 12.964844 42.601563 13.113281 C 42.84375 13.265625 43.03125 13.492188 43.175781 13.789063 C 43.316406 14.085938 43.386719 14.441406 43.386719 14.859375 C 43.386719 15.269531 43.320313 15.636719 43.183594 15.960938 C 43.046875 16.285156 42.84375 16.539063 42.582031 16.730469 C 42.324219 16.914063 41.96875 17.007813 41.511719 17.003906 Z M 36.625 16.996094 L 36.636719 12.597656 L 37.386719 12.597656 L 37.375 16.996094 Z M 34.9375 16.992188 L 34.949219 12.59375 L 35.699219 12.59375 L 35.6875 16.992188 Z M 33.257813 13.410156 L 33.257813 12.726563 L 34.011719 12.730469 L 34.011719 13.414063 Z M 33.246094 16.988281 L 33.253906 13.929688 L 34.011719 13.933594 L 34.003906 16.988281 Z M 29.964844 16.980469 L 29.972656 12.585938 L 30.726563 12.589844 L 30.722656 15.351563 L 30.765625 15.351563 L 31.761719 13.925781 L 32.382813 13.925781 L 31.464844 15.234375 L 32.660156 16.988281 L 31.753906 16.984375 L 30.765625 15.457031 L 30.722656 15.457031 L 30.71875 16.984375 Z M 26.792969 16.933594 L 26.792969 16.226563 C 27.085938 16.363281 27.300781 16.445313 27.445313 16.464844 C 27.59375 16.496094 27.726563 16.507813 27.847656 16.507813 C 28.066406 16.507813 28.230469 16.460938 28.339844 16.347656 C 28.441406 16.238281 28.503906 16.109375 28.503906 15.964844 C 28.503906 15.847656 28.472656 15.746094 28.410156 15.648438 C 28.351563 15.554688 28.203125 15.441406 27.972656 15.292969 L 27.714844 15.144531 C 27.355469 14.921875 27.109375 14.714844 26.984375 14.527344 C 26.855469 14.339844 26.789063 14.121094 26.789063 13.878906 C 26.789063 13.566406 26.898438 13.300781 27.117188 13.082031 C 27.332031 12.863281 27.644531 12.746094 28.050781 12.753906 C 28.347656 12.753906 28.691406 12.800781 29.070313 12.894531 L 29.066406 13.554688 C 28.679688 13.394531 28.371094 13.316406 28.144531 13.316406 C 27.957031 13.3125 27.8125 13.359375 27.714844 13.453125 C 27.613281 13.539063 27.5625 13.648438 27.5625 13.773438 C 27.5625 13.878906 27.59375 13.964844 27.652344 14.042969 C 27.710938 14.128906 27.859375 14.242188 28.097656 14.386719 L 28.363281 14.550781 C 28.777344 14.808594 29.039063 15.027344 29.152344 15.214844 C 29.269531 15.40625 29.324219 15.621094 29.324219 15.855469 C 29.320313 16.191406 29.203125 16.480469 28.96875 16.722656 C 28.734375 16.964844 28.359375 17.082031 27.851563 17.082031 C 27.546875 17.082031 27.191406 17.027344 26.792969 16.933594 Z M 26.792969 16.933594 "/>
</g>
<path style=" stroke:none;fill-rule:evenodd;fill:rgb(23.535156%,23.143005%,23.143005%);fill-opacity:1;" d="M 54.449219 21.8125 L 54.457031 18.882813 L 55.179688 18.882813 L 55.179688 19.433594 C 55.308594 19.210938 55.453125 19.046875 55.605469 18.957031 C 55.765625 18.859375 55.929688 18.816406 56.089844 18.820313 C 56.300781 18.820313 56.480469 18.890625 56.632813 19.035156 C 56.777344 19.191406 56.855469 19.421875 56.855469 19.746094 L 56.851563 21.816406 L 56.132813 21.816406 L 56.136719 19.941406 C 56.136719 19.777344 56.121094 19.667969 56.097656 19.609375 C 56.070313 19.554688 56.035156 19.515625 55.988281 19.480469 C 55.949219 19.457031 55.890625 19.4375 55.835938 19.4375 C 55.734375 19.4375 55.632813 19.472656 55.523438 19.542969 C 55.417969 19.617188 55.300781 19.757813 55.175781 19.96875 L 55.171875 21.8125 Z M 52.410156 21.382813 C 52.613281 21.382813 52.765625 21.28125 52.871094 21.089844 C 52.980469 20.890625 53.027344 20.644531 53.027344 20.34375 C 53.03125 20.042969 52.984375 19.792969 52.878906 19.597656 C 52.773438 19.402344 52.621094 19.304688 52.417969 19.304688 C 52.210938 19.304688 52.0625 19.398438 51.957031 19.597656 C 51.851563 19.792969 51.800781 20.039063 51.800781 20.339844 C 51.796875 20.640625 51.847656 20.886719 51.953125 21.089844 C 52.054688 21.28125 52.207031 21.382813 52.410156 21.382813 Z M 52.410156 21.878906 C 52.121094 21.871094 51.871094 21.8125 51.664063 21.6875 C 51.460938 21.5625 51.304688 21.378906 51.199219 21.136719 C 51.089844 20.894531 51.035156 20.636719 51.035156 20.339844 C 51.035156 20.042969 51.089844 19.78125 51.199219 19.539063 C 51.304688 19.300781 51.457031 19.121094 51.667969 18.996094 C 51.878906 18.871094 52.128906 18.808594 52.417969 18.8125 C 52.707031 18.8125 52.957031 18.871094 53.164063 18.996094 C 53.371094 19.128906 53.53125 19.304688 53.636719 19.542969 C 53.742188 19.789063 53.796875 20.050781 53.796875 20.34375 C 53.796875 20.640625 53.742188 20.902344 53.632813 21.140625 C 53.519531 21.382813 53.363281 21.570313 53.15625 21.6875 C 52.949219 21.816406 52.695313 21.878906 52.410156 21.878906 Z M 49.660156 18.371094 L 49.660156 17.714844 L 50.382813 17.71875 L 50.382813 18.371094 Z M 49.652344 21.800781 L 49.65625 18.867188 L 50.378906 18.871094 L 50.371094 21.804688 Z M 49.015625 21.78125 C 48.839844 21.839844 48.707031 21.867188 48.605469 21.867188 C 48.371094 21.867188 48.1875 21.835938 48.058594 21.753906 C 47.929688 21.683594 47.835938 21.585938 47.769531 21.460938 C 47.703125 21.335938 47.671875 21.148438 47.671875 20.898438 L 47.671875 19.359375 L 47.378906 19.355469 L 47.378906 18.863281 L 47.675781 18.863281 L 47.675781 18.367188 L 48.402344 18.28125 L 48.402344 18.863281 L 48.964844 18.867188 L 48.964844 19.363281 L 48.398438 19.359375 L 48.394531 20.796875 C 48.394531 21.011719 48.429688 21.152344 48.492188 21.230469 C 48.5625 21.300781 48.664063 21.339844 48.792969 21.339844 C 48.855469 21.339844 48.925781 21.332031 49.015625 21.304688 Z M 46.019531 21.058594 L 46.019531 20.460938 L 45.851563 20.460938 C 45.613281 20.460938 45.445313 20.503906 45.324219 20.597656 C 45.207031 20.6875 45.152344 20.800781 45.152344 20.9375 C 45.152344 21.046875 45.1875 21.140625 45.257813 21.214844 C 45.324219 21.28125 45.40625 21.320313 45.5 21.320313 C 45.585938 21.320313 45.671875 21.296875 45.757813 21.253906 C 45.84375 21.210938 45.929688 21.140625 46.019531 21.058594 Z M 46.019531 21.476563 C 45.910156 21.585938 45.824219 21.667969 45.75 21.71875 C 45.675781 21.761719 45.597656 21.800781 45.507813 21.828125 C 45.421875 21.851563 45.339844 21.859375 45.246094 21.859375 C 45.007813 21.859375 44.820313 21.777344 44.671875 21.609375 C 44.53125 21.453125 44.460938 21.246094 44.460938 21.015625 C 44.460938 20.722656 44.570313 20.484375 44.785156 20.292969 C 45 20.09375 45.351563 20.003906 45.832031 20.003906 L 46.019531 20.003906 L 46.019531 19.738281 C 46.023438 19.554688 45.976563 19.4375 45.890625 19.378906 C 45.800781 19.308594 45.679688 19.277344 45.539063 19.277344 C 45.265625 19.273438 44.988281 19.363281 44.699219 19.539063 L 44.699219 18.996094 C 45.027344 18.859375 45.347656 18.792969 45.667969 18.796875 C 45.871094 18.796875 46.042969 18.828125 46.203125 18.882813 C 46.359375 18.9375 46.480469 19.03125 46.578125 19.15625 C 46.664063 19.277344 46.714844 19.464844 46.714844 19.714844 L 46.710938 21.007813 C 46.710938 21.164063 46.730469 21.261719 46.777344 21.296875 C 46.820313 21.339844 46.863281 21.351563 46.910156 21.351563 C 46.933594 21.351563 46.964844 21.351563 47.003906 21.34375 L 47.023438 21.785156 C 46.867188 21.839844 46.734375 21.859375 46.617188 21.859375 C 46.488281 21.859375 46.367188 21.839844 46.269531 21.789063 C 46.175781 21.738281 46.101563 21.636719 46.046875 21.476563 Z M 42.445313 21.785156 L 42.449219 18.851563 L 43.167969 18.851563 L 43.167969 19.410156 C 43.253906 19.214844 43.375 19.070313 43.523438 18.960938 C 43.671875 18.84375 43.835938 18.792969 44.023438 18.792969 C 44.066406 18.792969 44.113281 18.796875 44.160156 18.808594 L 44.15625 19.507813 C 44.054688 19.46875 43.960938 19.445313 43.875 19.445313 C 43.726563 19.445313 43.601563 19.484375 43.476563 19.566406 C 43.363281 19.640625 43.261719 19.765625 43.167969 19.925781 L 43.164063 21.789063 Z M 40.402344 21.355469 C 40.605469 21.355469 40.761719 21.257813 40.867188 21.0625 C 40.972656 20.863281 41.019531 20.617188 41.019531 20.316406 C 41.019531 20.015625 40.972656 19.765625 40.871094 19.570313 C 40.769531 19.378906 40.613281 19.273438 40.410156 19.273438 C 40.203125 19.273438 40.054688 19.378906 39.949219 19.570313 C 39.84375 19.765625 39.792969 20.011719 39.792969 20.3125 C 39.792969 20.613281 39.839844 20.863281 39.945313 21.0625 C 40.050781 21.253906 40.199219 21.355469 40.402344 21.355469 Z M 40.402344 21.851563 C 40.113281 21.84375 39.863281 21.785156 39.660156 21.660156 C 39.449219 21.539063 39.296875 21.351563 39.1875 21.113281 C 39.082031 20.871094 39.023438 20.609375 39.023438 20.3125 C 39.027344 20.015625 39.082031 19.753906 39.1875 19.515625 C 39.296875 19.273438 39.449219 19.09375 39.664063 18.96875 C 39.867188 18.84375 40.117188 18.785156 40.410156 18.785156 C 40.703125 18.785156 40.953125 18.84375 41.15625 18.972656 C 41.367188 19.097656 41.523438 19.277344 41.625 19.519531 C 41.734375 19.761719 41.789063 20.019531 41.789063 20.316406 C 41.789063 20.609375 41.730469 20.878906 41.625 21.117188 C 41.511719 21.359375 41.351563 21.542969 41.148438 21.660156 C 40.941406 21.789063 40.6875 21.851563 40.402344 21.851563 Z M 36.6875 21.003906 C 36.785156 21.128906 36.878906 21.21875 36.964844 21.257813 C 37.050781 21.304688 37.136719 21.328125 37.226563 21.328125 C 37.417969 21.328125 37.558594 21.222656 37.652344 21.015625 C 37.753906 20.808594 37.796875 20.566406 37.796875 20.292969 C 37.796875 20.011719 37.753906 19.792969 37.664063 19.636719 C 37.574219 19.476563 37.449219 19.394531 37.285156 19.394531 C 37.183594 19.394531 37.082031 19.433594 36.976563 19.515625 C 36.875 19.597656 36.777344 19.710938 36.6875 19.839844 Z M 35.957031 22.832031 L 35.96875 18.839844 L 36.691406 18.839844 L 36.691406 19.394531 C 36.777344 19.1875 36.898438 19.035156 37.042969 18.929688 C 37.1875 18.832031 37.351563 18.777344 37.550781 18.777344 C 37.875 18.777344 38.121094 18.90625 38.300781 19.179688 C 38.476563 19.445313 38.566406 19.796875 38.566406 20.226563 C 38.5625 20.6875 38.460938 21.070313 38.261719 21.382813 C 38.066406 21.6875 37.789063 21.839844 37.429688 21.839844 C 37.339844 21.839844 37.25 21.835938 37.171875 21.804688 C 37.089844 21.785156 37.011719 21.753906 36.9375 21.707031 C 36.867188 21.65625 36.777344 21.585938 36.683594 21.480469 L 36.679688 22.832031 Z M 33.695313 21.765625 L 33.703125 18.835938 L 34.421875 18.839844 L 34.421875 19.390625 C 34.507813 19.203125 34.625 19.046875 34.777344 18.933594 C 34.925781 18.832031 35.089844 18.769531 35.277344 18.769531 C 35.320313 18.769531 35.367188 18.777344 35.410156 18.789063 L 35.40625 19.488281 C 35.308594 19.457031 35.214844 19.429688 35.125 19.429688 C 34.980469 19.429688 34.851563 19.464844 34.730469 19.546875 C 34.617188 19.628906 34.511719 19.746094 34.421875 19.90625 L 34.417969 21.769531 Z M 31.652344 21.339844 C 31.859375 21.339844 32.011719 21.238281 32.121094 21.042969 C 32.226563 20.84375 32.273438 20.597656 32.273438 20.296875 C 32.273438 19.996094 32.226563 19.753906 32.121094 19.554688 C 32.019531 19.355469 31.863281 19.257813 31.660156 19.253906 C 31.460938 19.253906 31.308594 19.351563 31.203125 19.550781 C 31.097656 19.746094 31.046875 19.992188 31.042969 20.292969 C 31.042969 20.597656 31.09375 20.839844 31.199219 21.039063 C 31.304688 21.238281 31.453125 21.339844 31.652344 21.339844 Z M 31.652344 21.832031 C 31.363281 21.832031 31.117188 21.765625 30.914063 21.636719 C 30.703125 21.519531 30.550781 21.335938 30.441406 21.089844 C 30.332031 20.847656 30.277344 20.589844 30.277344 20.292969 C 30.277344 19.996094 30.335938 19.734375 30.441406 19.492188 C 30.550781 19.253906 30.707031 19.078125 30.914063 18.953125 C 31.121094 18.828125 31.371094 18.765625 31.664063 18.765625 C 31.957031 18.765625 32.207031 18.832031 32.40625 18.953125 C 32.613281 19.082031 32.777344 19.257813 32.878906 19.503906 C 32.992188 19.742188 33.046875 20.003906 33.042969 20.300781 C 33.042969 20.59375 32.984375 20.855469 32.875 21.097656 C 32.765625 21.339844 32.605469 21.523438 32.402344 21.644531 C 32.191406 21.769531 31.941406 21.835938 31.652344 21.832031 Z M 29.867188 21.597656 C 29.707031 21.675781 29.574219 21.726563 29.453125 21.757813 C 29.339844 21.785156 29.203125 21.8125 29.058594 21.835938 C 28.914063 21.84375 28.761719 21.855469 28.617188 21.851563 C 27.988281 21.851563 27.519531 21.652344 27.214844 21.261719 C 26.902344 20.878906 26.746094 20.378906 26.75 19.777344 C 26.75 19.167969 26.90625 18.671875 27.21875 18.285156 C 27.527344 17.894531 28.015625 17.707031 28.675781 17.707031 C 29.066406 17.707031 29.453125 17.757813 29.84375 17.855469 L 29.84375 18.503906 C 29.65625 18.429688 29.503906 18.378906 29.378906 18.34375 C 29.269531 18.308594 29.152344 18.289063 29.046875 18.269531 C 28.9375 18.253906 28.835938 18.242188 28.730469 18.242188 C 28.320313 18.242188 28.019531 18.390625 27.828125 18.675781 C 27.644531 18.972656 27.546875 19.335938 27.546875 19.765625 C 27.546875 20.21875 27.648438 20.585938 27.863281 20.863281 C 28.070313 21.140625 28.390625 21.28125 28.804688 21.28125 C 29.15625 21.285156 29.507813 21.1875 29.867188 20.992188 Z M 29.867188 21.597656 "/>
<path style=" stroke:none;fill-rule:evenodd;fill:rgb(22.75238%,22.75238%,22.75238%);fill-opacity:1;" d="M 29.832031 5.265625 L 27.644531 2.398438 L 27.636719 5.257813 L 26.957031 5.257813 L 26.96875 0.992188 L 27.382813 0.992188 L 29.578125 3.859375 L 29.585938 0.992188 L 30.25 0.992188 L 30.242188 5.265625 Z M 29.832031 5.265625 "/>
<path style=" stroke:none;fill-rule:evenodd;fill:rgb(22.75238%,22.75238%,22.75238%);fill-opacity:1;" d="M 37.632813 3.984375 C 37.632813 3.585938 37.382813 3.378906 36.886719 3.378906 L 36.410156 3.378906 C 35.511719 3.378906 35.066406 2.964844 35.070313 2.144531 C 35.070313 1.386719 35.515625 1.011719 36.410156 1.015625 L 37.941406 1.015625 L 37.941406 1.679688 L 36.320313 1.679688 C 35.933594 1.675781 35.738281 1.839844 35.738281 2.164063 C 35.738281 2.523438 35.933594 2.714844 36.316406 2.714844 L 36.800781 2.714844 C 37.804688 2.714844 38.304688 3.144531 38.300781 3.992188 C 38.300781 4.855469 37.800781 5.285156 36.800781 5.28125 L 35.101563 5.273438 L 35.101563 4.609375 L 36.886719 4.617188 C 37.382813 4.617188 37.632813 4.40625 37.632813 3.984375 Z M 37.632813 3.984375 "/>
<path style=" stroke:none;fill-rule:evenodd;fill:rgb(22.75238%,22.75238%,22.75238%);fill-opacity:1;" d="M 46.109375 3.09375 C 46.117188 2.167969 45.6875 1.703125 44.84375 1.695313 L 43.765625 1.691406 L 43.757813 4.628906 L 44.835938 4.628906 C 45.679688 4.628906 46.109375 4.121094 46.109375 3.09375 Z M 43.082031 1.027344 L 44.65625 1.03125 C 46.089844 1.035156 46.808594 1.71875 46.804688 3.09375 C 46.804688 4.566406 46.085938 5.300781 44.660156 5.296875 L 43.074219 5.292969 Z M 43.082031 1.027344 "/>
<path style=" stroke:none;fill-rule:evenodd;fill:rgb(22.75238%,22.75238%,22.75238%);fill-opacity:1;" d="M 54.867188 4.273438 C 54.90625 4.242188 54.949219 4.207031 54.980469 4.15625 C 55.011719 4.113281 55.050781 4.070313 55.085938 4.023438 L 55.675781 4.355469 C 55.582031 4.492188 55.476563 4.617188 55.351563 4.746094 C 55.140625 4.953125 54.898438 5.109375 54.625 5.222656 C 54.347656 5.339844 54.058594 5.394531 53.757813 5.394531 C 53.449219 5.394531 53.15625 5.339844 52.878906 5.214844 C 52.605469 5.097656 52.363281 4.9375 52.160156 4.738281 C 51.953125 4.539063 51.785156 4.304688 51.667969 4.035156 C 51.546875 3.769531 51.492188 3.480469 51.492188 3.179688 C 51.492188 2.878906 51.550781 2.597656 51.671875 2.335938 C 51.792969 2.0625 51.957031 1.832031 52.167969 1.621094 C 52.371094 1.425781 52.613281 1.265625 52.890625 1.144531 C 53.164063 1.03125 53.460938 0.976563 53.769531 0.976563 C 54.070313 0.976563 54.355469 1.035156 54.636719 1.160156 C 54.675781 1.175781 54.714844 1.1875 54.757813 1.210938 C 54.789063 1.230469 54.828125 1.246094 54.859375 1.265625 L 54.488281 1.820313 C 54.464844 1.8125 54.445313 1.800781 54.429688 1.785156 C 54.40625 1.78125 54.386719 1.769531 54.371094 1.761719 C 54.277344 1.714844 54.179688 1.683594 54.082031 1.667969 C 53.976563 1.644531 53.871094 1.640625 53.765625 1.640625 C 53.550781 1.636719 53.34375 1.675781 53.148438 1.761719 C 52.960938 1.839844 52.789063 1.960938 52.644531 2.097656 C 52.5 2.238281 52.390625 2.402344 52.304688 2.589844 C 52.21875 2.769531 52.171875 2.972656 52.167969 3.179688 C 52.167969 3.390625 52.214844 3.59375 52.300781 3.78125 C 52.386719 3.964844 52.496094 4.132813 52.636719 4.273438 C 52.785156 4.414063 52.953125 4.523438 53.144531 4.609375 C 53.335938 4.691406 53.542969 4.730469 53.761719 4.730469 C 53.976563 4.730469 54.179688 4.691406 54.367188 4.609375 C 54.558594 4.527344 54.722656 4.417969 54.867188 4.273438 Z M 54.867188 4.273438 "/>
<path style=" stroke:none;fill-rule:evenodd;fill:rgb(69.334412%,78.90625%,0%);fill-opacity:1;" d="M 32.621094 2.445313 C 32.941406 2.453125 33.203125 2.707031 33.203125 3.015625 C 33.203125 3.339844 32.941406 3.589844 32.617188 3.589844 C 32.292969 3.589844 32.03125 3.335938 32.03125 3.015625 C 32.03125 2.703125 32.292969 2.441406 32.621094 2.445313 Z M 32.621094 2.445313 "/>
<path style=" stroke:none;fill-rule:evenodd;fill:rgb(0%,40.380859%,60.351563%);fill-opacity:1;" d="M 40.488281 2.464844 C 40.8125 2.464844 41.078125 2.71875 41.078125 3.035156 C 41.078125 3.351563 40.808594 3.609375 40.488281 3.609375 C 40.160156 3.609375 39.898438 3.351563 39.898438 3.035156 C 39.898438 2.71875 40.164063 2.464844 40.488281 2.464844 Z M 40.488281 2.464844 "/>
<path style=" stroke:none;fill-rule:evenodd;fill:rgb(84.375%,3.529358%,12.547302%);fill-opacity:1;" d="M 49.089844 2.484375 C 49.414063 2.484375 49.679688 2.738281 49.675781 3.054688 C 49.675781 3.371094 49.414063 3.628906 49.089844 3.628906 C 48.761719 3.628906 48.5 3.371094 48.5 3.050781 C 48.5 2.738281 48.765625 2.484375 49.089844 2.484375 Z M 49.089844 2.484375 "/>
<path style=" stroke:none;fill-rule:evenodd;fill:rgb(10.594177%,9.812927%,9.423828%);fill-opacity:1;" d="M 3.8125 27.875 L 2.945313 27.875 L 2.945313 27.179688 L 5.421875 27.179688 L 5.421875 27.875 L 4.542969 27.875 L 4.542969 30.855469 L 3.8125 30.855469 Z M 3.8125 27.875 "/>
<path style=" stroke:none;fill-rule:evenodd;fill:rgb(10.594177%,9.812927%,9.423828%);fill-opacity:1;" d="M 5.527344 29.066406 C 5.527344 28.671875 5.515625 28.417969 5.503906 28.1875 L 6.132813 28.1875 L 6.15625 28.679688 L 6.175781 28.679688 C 6.296875 28.292969 6.582031 28.128906 6.808594 28.128906 C 6.871094 28.128906 6.90625 28.128906 6.957031 28.140625 L 6.957031 28.917969 C 6.90625 28.90625 6.84375 28.894531 6.765625 28.894531 C 6.496094 28.894531 6.316406 29.058594 6.265625 29.316406 C 6.257813 29.375 6.25 29.433594 6.25 29.5 L 6.25 30.855469 L 5.527344 30.855469 Z M 5.527344 29.066406 "/>
<path style=" stroke:none;fill-rule:evenodd;fill:rgb(10.594177%,9.812927%,9.423828%);fill-opacity:1;" d="M 8.617188 30.855469 L 8.574219 30.585938 L 8.558594 30.585938 C 8.40625 30.796875 8.167969 30.917969 7.890625 30.917969 C 7.417969 30.917969 7.132813 30.519531 7.132813 30.097656 C 7.132813 29.402344 7.679688 29.070313 8.507813 29.074219 L 8.507813 29.042969 C 8.507813 28.894531 8.441406 28.695313 8.082031 28.695313 C 7.839844 28.695313 7.589844 28.789063 7.4375 28.894531 L 7.300781 28.363281 C 7.464844 28.257813 7.785156 28.128906 8.210938 28.128906 C 8.988281 28.128906 9.238281 28.652344 9.238281 29.277344 L 9.238281 30.207031 C 9.238281 30.460938 9.25 30.707031 9.273438 30.855469 Z M 8.53125 29.59375 C 8.148438 29.589844 7.851563 29.691406 7.851563 30.011719 C 7.851563 30.226563 7.976563 30.332031 8.140625 30.332031 C 8.320313 30.332031 8.46875 30.195313 8.515625 30.023438 C 8.527344 29.980469 8.53125 29.933594 8.53125 29.882813 Z M 8.53125 29.59375 "/>
<path style=" stroke:none;fill-rule:evenodd;fill:rgb(10.594177%,9.812927%,9.423828%);fill-opacity:1;" d="M 9.8125 29.042969 C 9.8125 28.707031 9.800781 28.421875 9.792969 28.1875 L 10.421875 28.1875 L 10.457031 28.554688 L 10.472656 28.554688 C 10.566406 28.382813 10.804688 28.128906 11.191406 28.128906 C 11.667969 28.128906 12.027344 28.488281 12.027344 29.273438 L 12.027344 30.855469 L 11.300781 30.855469 L 11.300781 29.375 C 11.300781 29.03125 11.195313 28.796875 10.933594 28.796875 C 10.730469 28.796875 10.613281 28.957031 10.566406 29.109375 C 10.546875 29.15625 10.535156 29.238281 10.535156 29.316406 L 10.535156 30.855469 L 9.8125 30.855469 Z M 9.8125 29.042969 "/>
<path style=" stroke:none;fill-rule:evenodd;fill:rgb(10.594177%,9.812927%,9.423828%);fill-opacity:1;" d="M 12.605469 30.125 C 12.738281 30.222656 13.015625 30.332031 13.230469 30.332031 C 13.449219 30.332031 13.542969 30.242188 13.542969 30.109375 C 13.542969 29.96875 13.472656 29.90625 13.199219 29.800781 C 12.714844 29.613281 12.527344 29.316406 12.535156 29 C 12.535156 28.503906 12.90625 28.128906 13.484375 28.128906 C 13.757813 28.128906 14 28.199219 14.144531 28.28125 L 14.015625 28.851563 C 13.910156 28.789063 13.707031 28.699219 13.507813 28.699219 C 13.332031 28.699219 13.230469 28.78125 13.230469 28.917969 C 13.230469 29.042969 13.320313 29.109375 13.609375 29.222656 C 14.054688 29.398438 14.238281 29.652344 14.246094 30.046875 C 14.246094 30.542969 13.898438 30.90625 13.230469 30.90625 C 12.925781 30.90625 12.652344 30.832031 12.476563 30.722656 Z M 12.605469 30.125 "/>
<path style=" stroke:none;fill-rule:evenodd;fill:rgb(10.594177%,9.812927%,9.423828%);fill-opacity:1;" d="M 14.765625 30.855469 L 14.765625 28.796875 L 14.457031 28.796875 L 14.457031 28.1875 L 14.765625 28.1875 L 14.765625 28.082031 C 14.765625 27.761719 14.851563 27.40625 15.058594 27.191406 C 15.242188 26.992188 15.496094 26.921875 15.707031 26.921875 C 15.867188 26.921875 15.992188 26.945313 16.09375 26.976563 L 16.066406 27.613281 C 16.003906 27.59375 15.925781 27.574219 15.828125 27.574219 C 15.589844 27.574219 15.492188 27.792969 15.492188 28.050781 L 15.492188 28.1875 L 15.960938 28.1875 L 15.960938 28.796875 L 15.496094 28.796875 L 15.496094 30.855469 Z M 14.765625 30.855469 "/>
<path style=" stroke:none;fill-rule:evenodd;fill:rgb(10.594177%,9.812927%,9.423828%);fill-opacity:1;" d="M 18.574219 29.488281 C 18.574219 30.464844 17.964844 30.917969 17.339844 30.917969 C 16.652344 30.917969 16.128906 30.402344 16.128906 29.542969 C 16.128906 28.679688 16.628906 28.128906 17.375 28.128906 C 18.09375 28.128906 18.574219 28.6875 18.574219 29.488281 Z M 16.882813 29.515625 C 16.882813 29.972656 17.046875 30.316406 17.359375 30.316406 C 17.640625 30.316406 17.820313 30 17.820313 29.515625 C 17.820313 29.117188 17.6875 28.714844 17.359375 28.714844 C 17.011719 28.714844 16.882813 29.125 16.882813 29.515625 Z M 16.882813 29.515625 "/>
<path style=" stroke:none;fill-rule:evenodd;fill:rgb(10.594177%,9.812927%,9.423828%);fill-opacity:1;" d="M 19.019531 29.066406 C 19.019531 28.671875 19.011719 28.417969 19 28.1875 L 19.628906 28.1875 L 19.652344 28.679688 L 19.671875 28.679688 C 19.789063 28.292969 20.078125 28.128906 20.300781 28.128906 C 20.367188 28.128906 20.402344 28.128906 20.457031 28.140625 L 20.457031 28.917969 C 20.402344 28.90625 20.339844 28.894531 20.257813 28.894531 C 19.992188 28.894531 19.808594 29.058594 19.761719 29.316406 C 19.75 29.375 19.746094 29.433594 19.746094 29.5 L 19.746094 30.855469 L 19.019531 30.855469 Z M 19.019531 29.066406 "/>
<path style=" stroke:none;fill-rule:evenodd;fill:rgb(10.594177%,9.812927%,9.423828%);fill-opacity:1;" d="M 20.835938 29.042969 C 20.835938 28.707031 20.828125 28.421875 20.816406 28.1875 L 21.429688 28.1875 L 21.460938 28.546875 L 21.476563 28.546875 C 21.574219 28.378906 21.78125 28.128906 22.183594 28.128906 C 22.484375 28.128906 22.722656 28.300781 22.824219 28.582031 L 22.832031 28.582031 C 22.921875 28.441406 23.023438 28.332031 23.136719 28.257813 C 23.265625 28.171875 23.40625 28.128906 23.578125 28.128906 C 24.027344 28.128906 24.367188 28.488281 24.367188 29.28125 L 24.367188 30.855469 L 23.660156 30.855469 L 23.660156 29.402344 C 23.660156 29.015625 23.550781 28.792969 23.316406 28.792969 C 23.148438 28.792969 23.027344 28.921875 22.980469 29.082031 C 22.960938 29.140625 22.953125 29.226563 22.953125 29.292969 L 22.953125 30.855469 L 22.246094 30.855469 L 22.246094 29.359375 C 22.246094 29.019531 22.140625 28.792969 21.910156 28.792969 C 21.722656 28.792969 21.613281 28.957031 21.570313 29.089844 C 21.546875 29.15625 21.542969 29.234375 21.542969 29.296875 L 21.542969 30.855469 L 20.835938 30.855469 Z M 20.835938 29.042969 "/>
<path style=" stroke:none;fill-rule:evenodd;fill:rgb(10.594177%,9.812927%,9.423828%);fill-opacity:1;" d="M 25.695313 27.445313 C 25.695313 27.671875 25.542969 27.859375 25.304688 27.859375 C 25.074219 27.859375 24.917969 27.671875 24.921875 27.445313 C 24.917969 27.207031 25.074219 27.027344 25.308594 27.027344 C 25.542969 27.027344 25.6875 27.207031 25.695313 27.445313 Z M 24.945313 28.1875 L 25.671875 28.1875 L 25.671875 30.855469 L 24.945313 30.855469 Z M 24.945313 28.1875 "/>
<path style=" stroke:none;fill-rule:evenodd;fill:rgb(10.594177%,9.812927%,9.423828%);fill-opacity:1;" d="M 26.253906 29.042969 C 26.253906 28.707031 26.242188 28.421875 26.234375 28.1875 L 26.867188 28.1875 L 26.898438 28.554688 L 26.914063 28.554688 C 27.007813 28.382813 27.246094 28.128906 27.632813 28.128906 C 28.113281 28.128906 28.472656 28.488281 28.472656 29.273438 L 28.472656 30.855469 L 27.742188 30.855469 L 27.742188 29.375 C 27.742188 29.03125 27.636719 28.796875 27.375 28.796875 C 27.175781 28.796875 27.058594 28.957031 27.007813 29.109375 C 26.988281 29.15625 26.980469 29.238281 26.980469 29.316406 L 26.980469 30.855469 L 26.253906 30.855469 Z M 26.253906 29.042969 "/>
<path style=" stroke:none;fill-rule:evenodd;fill:rgb(10.594177%,9.812927%,9.423828%);fill-opacity:1;" d="M 31.28125 28.1875 C 31.277344 28.355469 31.265625 28.582031 31.265625 28.976563 L 31.265625 30.464844 C 31.265625 30.980469 31.175781 31.398438 30.914063 31.664063 C 30.65625 31.921875 30.304688 31.992188 29.960938 31.992188 C 29.65625 31.992188 29.332031 31.921875 29.121094 31.789063 L 29.265625 31.164063 C 29.410156 31.257813 29.671875 31.359375 29.941406 31.359375 C 30.285156 31.359375 30.550781 31.148438 30.550781 30.65625 L 30.550781 30.480469 L 30.539063 30.480469 C 30.398438 30.707031 30.175781 30.832031 29.90625 30.832031 C 29.332031 30.832031 28.917969 30.296875 28.917969 29.527344 C 28.917969 28.671875 29.40625 28.128906 29.980469 28.128906 C 30.300781 28.128906 30.5 28.289063 30.617188 28.503906 L 30.628906 28.503906 L 30.652344 28.1875 Z M 30.539063 29.273438 C 30.539063 29.21875 30.535156 29.167969 30.527344 29.117188 C 30.472656 28.902344 30.332031 28.753906 30.132813 28.753906 C 29.871094 28.753906 29.65625 29.027344 29.65625 29.511719 C 29.65625 29.914063 29.828125 30.222656 30.132813 30.222656 C 30.320313 30.222656 30.46875 30.082031 30.515625 29.882813 C 30.535156 29.824219 30.539063 29.734375 30.539063 29.667969 Z M 30.539063 29.273438 "/>
<path style=" stroke:none;fill-rule:evenodd;fill:rgb(10.594177%,9.812927%,9.423828%);fill-opacity:1;" d="M 33.625 27.421875 L 33.625 28.1875 L 34.148438 28.1875 L 34.148438 28.796875 L 33.625 28.796875 L 33.625 29.761719 C 33.625 30.082031 33.691406 30.230469 33.910156 30.230469 C 34.003906 30.230469 34.074219 30.222656 34.125 30.210938 L 34.132813 30.835938 C 34.035156 30.878906 33.863281 30.90625 33.65625 30.90625 C 33.421875 30.90625 33.226563 30.816406 33.113281 30.679688 C 32.980469 30.519531 32.914063 30.265625 32.914063 29.886719 L 32.914063 28.796875 L 32.601563 28.796875 L 32.601563 28.1875 L 32.914063 28.1875 L 32.914063 27.609375 Z M 33.625 27.421875 "/>
<path style=" stroke:none;fill-rule:evenodd;fill:rgb(10.594177%,9.812927%,9.423828%);fill-opacity:1;" d="M 34.566406 26.984375 L 35.292969 26.984375 L 35.292969 28.503906 L 35.300781 28.503906 C 35.378906 28.390625 35.472656 28.300781 35.589844 28.230469 C 35.691406 28.167969 35.832031 28.128906 35.964844 28.128906 C 36.429688 28.128906 36.785156 28.492188 36.785156 29.292969 L 36.785156 30.855469 L 36.054688 30.855469 L 36.054688 29.386719 C 36.054688 29.042969 35.953125 28.796875 35.679688 28.796875 C 35.488281 28.796875 35.367188 28.941406 35.316406 29.085938 C 35.296875 29.140625 35.292969 29.210938 35.292969 29.273438 L 35.292969 30.855469 L 34.566406 30.855469 Z M 34.566406 26.984375 "/>
<path style=" stroke:none;fill-rule:evenodd;fill:rgb(10.594177%,9.812927%,9.423828%);fill-opacity:1;" d="M 37.921875 29.789063 C 37.949219 30.125 38.242188 30.292969 38.582031 30.292969 C 38.832031 30.292969 39.035156 30.253906 39.226563 30.179688 L 39.324219 30.75 C 39.085938 30.855469 38.792969 30.90625 38.476563 30.90625 C 37.683594 30.90625 37.230469 30.386719 37.230469 29.550781 C 37.230469 28.875 37.601563 28.128906 38.410156 28.128906 C 39.164063 28.128906 39.453125 28.796875 39.453125 29.457031 C 39.453125 29.597656 39.4375 29.722656 39.429688 29.789063 Z M 38.777344 29.21875 C 38.777344 29.015625 38.703125 28.679688 38.367188 28.679688 C 38.058594 28.679688 37.9375 28.992188 37.917969 29.21875 Z M 38.777344 29.21875 "/>
<path style=" stroke:none;fill-rule:evenodd;fill:rgb(10.594177%,9.812927%,9.423828%);fill-opacity:1;" d="M 40.847656 30.125 C 40.980469 30.222656 41.257813 30.332031 41.472656 30.332031 C 41.691406 30.332031 41.785156 30.242188 41.785156 30.109375 C 41.785156 29.96875 41.710938 29.90625 41.441406 29.800781 C 40.957031 29.613281 40.773438 29.316406 40.773438 29 C 40.773438 28.503906 41.148438 28.128906 41.726563 28.128906 C 41.996094 28.128906 42.242188 28.199219 42.386719 28.28125 L 42.257813 28.851563 C 42.152344 28.789063 41.949219 28.699219 41.75 28.699219 C 41.574219 28.699219 41.472656 28.78125 41.472656 28.917969 C 41.472656 29.042969 41.5625 29.109375 41.851563 29.222656 C 42.292969 29.398438 42.480469 29.652344 42.484375 30.046875 C 42.484375 30.542969 42.140625 30.90625 41.472656 30.90625 C 41.167969 30.90625 40.894531 30.832031 40.71875 30.722656 Z M 40.847656 30.125 "/>
<path style=" stroke:none;fill-rule:evenodd;fill:rgb(10.594177%,9.812927%,9.423828%);fill-opacity:1;" d="M 43.652344 29.308594 L 43.660156 29.308594 C 43.714844 29.207031 43.769531 29.089844 43.828125 28.988281 L 44.300781 28.1875 L 45.179688 28.1875 L 44.339844 29.265625 L 45.296875 30.855469 L 44.402344 30.855469 L 43.835938 29.757813 L 43.652344 30.019531 L 43.652344 30.855469 L 42.925781 30.855469 L 42.925781 26.984375 L 43.652344 26.984375 Z M 43.652344 29.308594 "/>
<path style=" stroke:none;fill-rule:evenodd;fill:rgb(10.594177%,9.812927%,9.423828%);fill-opacity:1;" d="M 46.3125 27.445313 C 46.3125 27.671875 46.160156 27.859375 45.917969 27.859375 C 45.691406 27.859375 45.539063 27.671875 45.542969 27.445313 C 45.535156 27.207031 45.691406 27.027344 45.925781 27.027344 C 46.160156 27.027344 46.308594 27.207031 46.3125 27.445313 Z M 45.5625 28.1875 L 46.289063 28.1875 L 46.289063 30.855469 L 45.5625 30.855469 Z M 45.5625 28.1875 "/>
<path style=" stroke:none;fill-rule:evenodd;fill:rgb(10.594177%,9.812927%,9.423828%);fill-opacity:1;" d="M 46.871094 30.855469 L 47.597656 30.855469 L 47.597656 26.984375 L 46.871094 26.984375 Z M 46.871094 30.855469 "/>
<path style=" stroke:none;fill-rule:evenodd;fill:rgb(10.594177%,9.812927%,9.423828%);fill-opacity:1;" d="M 48.183594 30.855469 L 48.910156 30.855469 L 48.910156 26.984375 L 48.183594 26.984375 Z M 48.183594 30.855469 "/>
<path style=" stroke:none;fill-rule:evenodd;fill:rgb(10.594177%,9.812927%,9.423828%);fill-opacity:1;" d="M 50.464844 30.855469 L 51.1875 30.855469 L 51.1875 26.984375 L 50.464844 26.984375 Z M 50.464844 30.855469 "/>
<path style=" stroke:none;fill-rule:evenodd;fill:rgb(10.594177%,9.812927%,9.423828%);fill-opacity:1;" d="M 53.105469 30.855469 L 53.0625 30.585938 L 53.046875 30.585938 C 52.894531 30.796875 52.65625 30.917969 52.378906 30.917969 C 51.90625 30.917969 51.621094 30.519531 51.621094 30.097656 C 51.621094 29.402344 52.167969 29.070313 52.996094 29.074219 L 52.996094 29.042969 C 52.996094 28.894531 52.925781 28.695313 52.570313 28.695313 C 52.332031 28.695313 52.078125 28.789063 51.925781 28.894531 L 51.792969 28.363281 C 51.953125 28.257813 52.273438 28.128906 52.699219 28.128906 C 53.476563 28.128906 53.726563 28.652344 53.726563 29.277344 L 53.726563 30.207031 C 53.726563 30.460938 53.738281 30.707031 53.761719 30.855469 Z M 53.019531 29.59375 C 52.636719 29.589844 52.339844 29.691406 52.339844 30.011719 C 52.339844 30.226563 52.464844 30.332031 52.625 30.332031 C 52.808594 30.332031 52.957031 30.195313 53.003906 30.023438 C 53.015625 29.980469 53.019531 29.933594 53.019531 29.882813 Z M 53.019531 29.59375 "/>
<path style=" stroke:none;fill-rule:evenodd;fill:rgb(10.594177%,9.812927%,9.423828%);fill-opacity:1;" d="M 54.296875 29.042969 C 54.296875 28.707031 54.289063 28.421875 54.28125 28.1875 L 54.910156 28.1875 L 54.945313 28.554688 L 54.957031 28.554688 C 55.050781 28.382813 55.292969 28.128906 55.679688 28.128906 C 56.15625 28.128906 56.515625 28.488281 56.515625 29.273438 L 56.515625 30.855469 L 55.789063 30.855469 L 55.789063 29.375 C 55.789063 29.03125 55.683594 28.796875 55.421875 28.796875 C 55.21875 28.796875 55.101563 28.957031 55.050781 29.109375 C 55.03125 29.15625 55.023438 29.238281 55.023438 29.316406 L 55.023438 30.855469 L 54.296875 30.855469 Z M 54.296875 29.042969 "/>
<path style=" stroke:none;fill-rule:evenodd;fill:rgb(10.594177%,9.812927%,9.423828%);fill-opacity:1;" d="M 59.363281 26.984375 L 59.363281 30.058594 C 59.363281 30.359375 59.371094 30.671875 59.382813 30.855469 L 58.738281 30.855469 L 58.703125 30.460938 L 58.695313 30.460938 C 58.546875 30.761719 58.261719 30.917969 57.964844 30.917969 C 57.410156 30.917969 56.964844 30.375 56.964844 29.542969 C 56.957031 28.644531 57.449219 28.128906 58.011719 28.128906 C 58.296875 28.128906 58.519531 28.242188 58.628906 28.425781 L 58.636719 28.425781 L 58.636719 26.984375 Z M 58.636719 29.316406 C 58.636719 29.273438 58.632813 29.210938 58.628906 29.167969 C 58.582031 28.945313 58.425781 28.757813 58.203125 28.757813 C 57.871094 28.757813 57.699219 29.097656 57.699219 29.515625 C 57.699219 29.96875 57.894531 30.253906 58.195313 30.253906 C 58.40625 30.253906 58.574219 30.089844 58.617188 29.855469 C 58.632813 29.796875 58.636719 29.734375 58.636719 29.667969 Z M 58.636719 29.316406 "/>
<path style=" stroke:none;fill-rule:evenodd;fill:rgb(10.594177%,9.812927%,9.423828%);fill-opacity:1;" d="M 59.9375 30.125 C 60.074219 30.222656 60.351563 30.332031 60.566406 30.332031 C 60.785156 30.332031 60.878906 30.242188 60.878906 30.109375 C 60.878906 29.96875 60.804688 29.90625 60.53125 29.800781 C 60.050781 29.613281 59.863281 29.316406 59.867188 29 C 59.867188 28.503906 60.242188 28.128906 60.820313 28.128906 C 61.09375 28.128906 61.335938 28.199219 61.476563 28.28125 L 61.347656 28.851563 C 61.246094 28.789063 61.042969 28.699219 60.84375 28.699219 C 60.667969 28.699219 60.566406 28.78125 60.566406 28.917969 C 60.566406 29.042969 60.65625 29.109375 60.941406 29.222656 C 61.386719 29.398438 61.574219 29.652344 61.578125 30.046875 C 61.578125 30.542969 61.234375 30.90625 60.566406 30.90625 C 60.261719 30.90625 59.988281 30.832031 59.808594 30.722656 Z M 59.9375 30.125 "/>
<path style=" stroke:none;fill-rule:evenodd;fill:rgb(10.594177%,9.812927%,9.423828%);fill-opacity:1;" d="M 63.769531 30.792969 C 63.644531 30.855469 63.398438 30.90625 63.121094 30.90625 C 62.367188 30.90625 61.882813 30.386719 61.882813 29.542969 C 61.882813 28.765625 62.351563 28.128906 63.222656 28.128906 C 63.414063 28.128906 63.625 28.167969 63.777344 28.230469 L 63.664063 28.847656 C 63.578125 28.804688 63.445313 28.765625 63.253906 28.765625 C 62.875 28.765625 62.625 29.074219 62.628906 29.511719 C 62.628906 30 62.914063 30.261719 63.269531 30.261719 C 63.445313 30.261719 63.578125 30.226563 63.683594 30.175781 Z M 63.769531 30.792969 "/>
<path style=" stroke:none;fill-rule:evenodd;fill:rgb(10.594177%,9.812927%,9.423828%);fill-opacity:1;" d="M 65.519531 30.855469 L 65.476563 30.585938 L 65.460938 30.585938 C 65.308594 30.796875 65.070313 30.917969 64.792969 30.917969 C 64.320313 30.917969 64.039063 30.519531 64.039063 30.097656 C 64.039063 29.402344 64.582031 29.070313 65.410156 29.074219 L 65.410156 29.042969 C 65.410156 28.894531 65.34375 28.695313 64.984375 28.695313 C 64.746094 28.695313 64.492188 28.789063 64.339844 28.894531 L 64.207031 28.363281 C 64.367188 28.257813 64.691406 28.128906 65.113281 28.128906 C 65.890625 28.128906 66.140625 28.652344 66.140625 29.277344 L 66.140625 30.207031 C 66.140625 30.460938 66.152344 30.707031 66.175781 30.855469 Z M 65.433594 29.59375 C 65.050781 29.589844 64.753906 29.691406 64.753906 30.011719 C 64.753906 30.226563 64.878906 30.332031 65.042969 30.332031 C 65.222656 30.332031 65.371094 30.195313 65.421875 30.023438 C 65.429688 29.980469 65.433594 29.933594 65.433594 29.882813 Z M 65.433594 29.59375 "/>
<path style=" stroke:none;fill-rule:evenodd;fill:rgb(10.594177%,9.812927%,9.423828%);fill-opacity:1;" d="M 66.714844 29.082031 C 66.714844 28.730469 66.703125 28.433594 66.695313 28.1875 L 67.328125 28.1875 L 67.355469 28.558594 L 67.367188 28.558594 C 67.539063 28.273438 67.808594 28.128906 68.144531 28.128906 C 68.65625 28.128906 69.117188 28.632813 69.117188 29.484375 C 69.117188 30.457031 68.578125 30.917969 68.054688 30.917969 C 67.773438 30.917969 67.554688 30.78125 67.449219 30.605469 L 67.441406 30.605469 L 67.441406 31.933594 L 66.714844 31.933594 Z M 67.441406 29.707031 C 67.441406 29.773438 67.445313 29.832031 67.457031 29.882813 C 67.5 30.109375 67.667969 30.273438 67.882813 30.273438 C 68.195313 30.273438 68.382813 29.972656 68.382813 29.523438 C 68.382813 29.097656 68.214844 28.777344 67.890625 28.777344 C 67.683594 28.777344 67.5 28.949219 67.457031 29.195313 C 67.445313 29.238281 67.441406 29.292969 67.441406 29.34375 Z M 67.441406 29.707031 "/>
<path style=" stroke:none;fill-rule:evenodd;fill:rgb(10.594177%,9.812927%,9.423828%);fill-opacity:1;" d="M 70.144531 29.789063 C 70.167969 30.125 70.464844 30.292969 70.804688 30.292969 C 71.050781 30.292969 71.25 30.253906 71.449219 30.179688 L 71.542969 30.75 C 71.304688 30.855469 71.015625 30.90625 70.695313 30.90625 C 69.90625 30.90625 69.449219 30.386719 69.449219 29.550781 C 69.449219 28.875 69.820313 28.128906 70.628906 28.128906 C 71.386719 28.128906 71.671875 28.796875 71.671875 29.457031 C 71.671875 29.597656 71.660156 29.722656 71.648438 29.789063 Z M 71 29.21875 C 71 29.015625 70.921875 28.679688 70.585938 28.679688 C 70.28125 28.679688 70.160156 28.992188 70.140625 29.21875 Z M 71 29.21875 "/>
</g>
</svg>
